<svg width="43" height="43" viewBox="0 0 43 43" fill="none" xmlns="http://www.w3.org/2000/svg">
<rect x="1" y="1" width="41" height="41" rx="9" stroke="black" stroke-width="2"/>
<path d="M27.7676 22.4086C27.7676 25.6827 25.0497 28.3734 21.6514 28.3734C18.2531 28.3734 15.5352 25.6827 15.5352 22.4086C15.5352 19.1345 18.2531 16.4438 21.6514 16.4438C25.0497 16.4438 27.7676 19.1345 27.7676 22.4086Z" stroke="black" stroke-width="2"/>
<path d="M30.3968 22.5238C30.3968 27.2161 26.447 31.0794 21.5 31.0794C16.5531 31.0794 12.6032 27.2161 12.6032 22.5238C12.6032 17.8315 16.5531 13.9683 21.5 13.9683C26.447 13.9683 30.3968 17.8315 30.3968 22.5238Z" stroke="black" stroke-width="2"/>
<circle cx="33.9155" cy="9.08473" r="2.72535" fill="black"/>
</svg>
