<?xml version="1.0" encoding="UTF-8"?>
<svg xmlns="http://www.w3.org/2000/svg" xmlns:xlink="http://www.w3.org/1999/xlink" width="63px" height="61px" viewBox="0 0 63 61" version="1.1">
<g id="surface1">
<path style=" stroke:none;fill-rule:nonzero;fill:rgb(95.294118%,85.098039%,74.901961%);fill-opacity:1;" d="M 63 26.171875 C 63 40.625 51.289062 52.339844 36.84375 52.339844 C 22.402344 52.339844 10.691406 40.625 10.691406 26.171875 C 10.691406 11.714844 22.402344 0 36.84375 0 C 51.289062 0 63 11.714844 63 26.171875 Z M 63 26.171875 "/>
<path style=" stroke:none;fill-rule:nonzero;fill:rgb(100%,96.078431%,96.078431%);fill-opacity:1;" d="M 31.445312 20.46875 L 29.21875 23.398438 C 29.21875 23.957031 29.28125 24.265625 29.410156 24.351562 C 33.609375 31.230469 38.828125 32.949219 39.910156 33.328125 C 40.773438 33.636719 41.246094 33.203125 41.375 32.949219 L 43.664062 30.144531 C 44.070312 29.28125 45.148438 29.574219 45.636719 29.828125 C 47.207031 30.570312 50.550781 32.144531 51.363281 32.503906 C 52.179688 32.859375 52.253906 33.371094 52.191406 33.585938 C 52.171875 33.902344 52.078125 34.808594 51.875 35.875 C 51.667969 36.945312 50.429688 38.148438 49.835938 38.613281 C 47.597656 40.652344 44.28125 40.523438 42.902344 40.207031 C 29.792969 37.597656 23.238281 24.796875 22.792969 24.351562 C 22.347656 23.90625 20.4375 19.195312 21.964844 15.691406 C 23.1875 12.890625 24.976562 11.976562 25.71875 11.871094 C 26.183594 11.851562 27.257812 11.820312 27.820312 11.871094 C 28.378906 11.921875 28.859375 12.445312 29.027344 12.699219 C 29.621094 14.3125 30.9375 17.730469 31.445312 18.492188 C 31.953125 19.257812 31.65625 20.128906 31.445312 20.46875 Z M 31.445312 20.46875 "/>
<path style=" stroke:none;fill-rule:nonzero;fill:rgb(95.294118%,85.098039%,74.901961%);fill-opacity:1;" d="M 7.304688 54.074219 L 12.988281 34.433594 L 27.050781 49.078125 Z M 7.304688 54.074219 "/>
</g>
</svg>
