<svg width="61" height="52" viewBox="0 0 61 52" fill="none" xmlns="http://www.w3.org/2000/svg">
<path d="M0.744425 25.4816L15.4614 30.0719L24.2102 25.2034C30.2462 21.3549 43.2677 13.032 47.0656 10.5281C50.8635 8.02431 49.5071 9.99492 48.3542 11.2932L24.2102 34.3841C23.8485 36.9111 23.1522 42.8554 23.2607 46.4164C23.3692 49.9774 25.431 48.4102 26.4483 47.1815L32.7556 40.3655C35.5588 42.3361 42.1826 47.1398 46.2518 50.5895C50.321 54.0392 51.4739 50.3577 51.5418 48.0857L60.2227 6.84193C63.0983 -1.61547 57.3065 -0.48411 54.0511 1.13875C37.9777 7.28241 5.08492 19.8897 2.10083 21.1694C-0.88326 22.4492 -0.0468107 24.5774 0.744425 25.4816Z" fill="#F3D9BF"/>
</svg>
