<svg width="544" height="457" viewBox="0 0 544 457" fill="none" xmlns="http://www.w3.org/2000/svg">
<path d="M5.624 309V308.184L10.28 303.624C10.7067 303.208 11.0267 302.845 11.24 302.536C11.4533 302.216 11.5973 301.917 11.672 301.64C11.7467 301.363 11.784 301.101 11.784 300.856C11.784 300.205 11.56 299.693 11.112 299.32C10.6747 298.947 10.024 298.76 9.16 298.76C8.49867 298.76 7.912 298.861 7.4 299.064C6.89867 299.267 6.46667 299.581 6.104 300.008L5.288 299.304C5.72533 298.792 6.28533 298.397 6.968 298.12C7.65067 297.843 8.41333 297.704 9.256 297.704C10.0133 297.704 10.6693 297.827 11.224 298.072C11.7787 298.307 12.2053 298.653 12.504 299.112C12.8133 299.571 12.968 300.109 12.968 300.728C12.968 301.091 12.9147 301.448 12.808 301.8C12.712 302.152 12.5307 302.525 12.264 302.92C12.008 303.304 11.6293 303.741 11.128 304.232L6.856 308.424L6.536 307.976H13.48V309H5.624ZM19.3585 309.096C18.4945 309.096 17.7265 308.872 17.0545 308.424C16.3825 307.965 15.8545 307.315 15.4705 306.472C15.0865 305.619 14.8945 304.595 14.8945 303.4C14.8945 302.205 15.0865 301.187 15.4705 300.344C15.8545 299.491 16.3825 298.84 17.0545 298.392C17.7265 297.933 18.4945 297.704 19.3585 297.704C20.2225 297.704 20.9905 297.933 21.6625 298.392C22.3345 298.84 22.8625 299.491 23.2465 300.344C23.6412 301.187 23.8385 302.205 23.8385 303.4C23.8385 304.595 23.6412 305.619 23.2465 306.472C22.8625 307.315 22.3345 307.965 21.6625 308.424C20.9905 308.872 20.2225 309.096 19.3585 309.096ZM19.3585 308.04C20.0198 308.04 20.5958 307.864 21.0865 307.512C21.5772 307.149 21.9612 306.627 22.2385 305.944C22.5158 305.251 22.6545 304.403 22.6545 303.4C22.6545 302.397 22.5158 301.555 22.2385 300.872C21.9612 300.179 21.5772 299.656 21.0865 299.304C20.5958 298.941 20.0198 298.76 19.3585 298.76C18.7185 298.76 18.1478 298.941 17.6465 299.304C17.1452 299.656 16.7558 300.179 16.4785 300.872C16.2012 301.555 16.0625 302.397 16.0625 303.4C16.0625 304.403 16.2012 305.251 16.4785 305.944C16.7558 306.627 17.1452 307.149 17.6465 307.512C18.1478 307.864 18.7185 308.04 19.3585 308.04ZM26.9923 309L34.6403 297.8H35.5843L27.9363 309H26.9923ZM27.8563 303.8C27.3549 303.8 26.9123 303.677 26.5283 303.432C26.1443 303.176 25.8456 302.819 25.6323 302.36C25.4296 301.901 25.3283 301.368 25.3283 300.76C25.3283 300.152 25.4296 299.619 25.6323 299.16C25.8456 298.701 26.1443 298.349 26.5283 298.104C26.9123 297.848 27.3549 297.72 27.8563 297.72C28.3576 297.72 28.7949 297.848 29.1683 298.104C29.5523 298.349 29.8509 298.701 30.0643 299.16C30.2776 299.619 30.3843 300.152 30.3843 300.76C30.3843 301.368 30.2776 301.901 30.0643 302.36C29.8509 302.819 29.5523 303.176 29.1683 303.432C28.7949 303.677 28.3576 303.8 27.8563 303.8ZM27.8563 303.08C28.3789 303.08 28.7949 302.877 29.1043 302.472C29.4243 302.056 29.5843 301.485 29.5843 300.76C29.5843 300.035 29.4243 299.469 29.1043 299.064C28.7949 298.648 28.3789 298.44 27.8563 298.44C27.3229 298.44 26.9016 298.648 26.5923 299.064C26.2829 299.469 26.1283 300.035 26.1283 300.76C26.1283 301.485 26.2829 302.056 26.5923 302.472C26.9016 302.877 27.3229 303.08 27.8563 303.08ZM34.7203 309.08C34.2296 309.08 33.7923 308.957 33.4083 308.712C33.0243 308.456 32.7256 308.099 32.5123 307.64C32.2989 307.181 32.1923 306.648 32.1923 306.04C32.1923 305.432 32.2989 304.899 32.5123 304.44C32.7256 303.981 33.0243 303.629 33.4083 303.384C33.7923 303.128 34.2296 303 34.7203 303C35.2323 303 35.6749 303.128 36.0483 303.384C36.4323 303.629 36.7256 303.981 36.9283 304.44C37.1416 304.899 37.2483 305.432 37.2483 306.04C37.2483 306.648 37.1416 307.181 36.9283 307.64C36.7256 308.099 36.4323 308.456 36.0483 308.712C35.6749 308.957 35.2323 309.08 34.7203 309.08ZM34.7203 308.36C35.2429 308.36 35.6589 308.157 35.9683 307.752C36.2883 307.336 36.4483 306.765 36.4483 306.04C36.4483 305.315 36.2883 304.749 35.9683 304.344C35.6589 303.928 35.2429 303.72 34.7203 303.72C34.1976 303.72 33.7763 303.928 33.4563 304.344C33.1469 304.749 32.9923 305.315 32.9923 306.04C32.9923 306.765 33.1469 307.336 33.4563 307.752C33.7763 308.157 34.1976 308.36 34.7203 308.36Z" fill="black"/>
<path d="M5.64 234.056V233.224L11.576 225.8H12.856L6.968 233.224L6.344 233.032H15.352V234.056H5.64ZM11.96 237V234.056L11.992 233.032V230.44H13.112V237H11.96ZM20.8741 237.096C20.0101 237.096 19.2421 236.872 18.5701 236.424C17.8981 235.965 17.3701 235.315 16.9861 234.472C16.6021 233.619 16.4101 232.595 16.4101 231.4C16.4101 230.205 16.6021 229.187 16.9861 228.344C17.3701 227.491 17.8981 226.84 18.5701 226.392C19.2421 225.933 20.0101 225.704 20.8741 225.704C21.7381 225.704 22.5061 225.933 23.1781 226.392C23.8501 226.84 24.3781 227.491 24.7621 228.344C25.1568 229.187 25.3541 230.205 25.3541 231.4C25.3541 232.595 25.1568 233.619 24.7621 234.472C24.3781 235.315 23.8501 235.965 23.1781 236.424C22.5061 236.872 21.7381 237.096 20.8741 237.096ZM20.8741 236.04C21.5355 236.04 22.1115 235.864 22.6021 235.512C23.0928 235.149 23.4768 234.627 23.7541 233.944C24.0315 233.251 24.1701 232.403 24.1701 231.4C24.1701 230.397 24.0315 229.555 23.7541 228.872C23.4768 228.179 23.0928 227.656 22.6021 227.304C22.1115 226.941 21.5355 226.76 20.8741 226.76C20.2341 226.76 19.6635 226.941 19.1621 227.304C18.6608 227.656 18.2715 228.179 17.9941 228.872C17.7168 229.555 17.5781 230.397 17.5781 231.4C17.5781 232.403 17.7168 233.251 17.9941 233.944C18.2715 234.627 18.6608 235.149 19.1621 235.512C19.6635 235.864 20.2341 236.04 20.8741 236.04ZM28.5079 237L36.1559 225.8H37.0999L29.4519 237H28.5079ZM29.3719 231.8C28.8705 231.8 28.4279 231.677 28.0439 231.432C27.6599 231.176 27.3612 230.819 27.1479 230.36C26.9452 229.901 26.8439 229.368 26.8439 228.76C26.8439 228.152 26.9452 227.619 27.1479 227.16C27.3612 226.701 27.6599 226.349 28.0439 226.104C28.4279 225.848 28.8705 225.72 29.3719 225.72C29.8732 225.72 30.3105 225.848 30.6839 226.104C31.0679 226.349 31.3665 226.701 31.5799 227.16C31.7932 227.619 31.8999 228.152 31.8999 228.76C31.8999 229.368 31.7932 229.901 31.5799 230.36C31.3665 230.819 31.0679 231.176 30.6839 231.432C30.3105 231.677 29.8732 231.8 29.3719 231.8ZM29.3719 231.08C29.8945 231.08 30.3105 230.877 30.6199 230.472C30.9399 230.056 31.0999 229.485 31.0999 228.76C31.0999 228.035 30.9399 227.469 30.6199 227.064C30.3105 226.648 29.8945 226.44 29.3719 226.44C28.8385 226.44 28.4172 226.648 28.1079 227.064C27.7985 227.469 27.6439 228.035 27.6439 228.76C27.6439 229.485 27.7985 230.056 28.1079 230.472C28.4172 230.877 28.8385 231.08 29.3719 231.08ZM36.2359 237.08C35.7452 237.08 35.3079 236.957 34.9239 236.712C34.5399 236.456 34.2412 236.099 34.0279 235.64C33.8145 235.181 33.7079 234.648 33.7079 234.04C33.7079 233.432 33.8145 232.899 34.0279 232.44C34.2412 231.981 34.5399 231.629 34.9239 231.384C35.3079 231.128 35.7452 231 36.2359 231C36.7479 231 37.1905 231.128 37.5639 231.384C37.9479 231.629 38.2412 231.981 38.4439 232.44C38.6572 232.899 38.7639 233.432 38.7639 234.04C38.7639 234.648 38.6572 235.181 38.4439 235.64C38.2412 236.099 37.9479 236.456 37.5639 236.712C37.1905 236.957 36.7479 237.08 36.2359 237.08ZM36.2359 236.36C36.7585 236.36 37.1745 236.157 37.4839 235.752C37.8039 235.336 37.9639 234.765 37.9639 234.04C37.9639 233.315 37.8039 232.749 37.4839 232.344C37.1745 231.928 36.7585 231.72 36.2359 231.72C35.7132 231.72 35.2919 231.928 34.9719 232.344C34.6625 232.749 34.5079 233.315 34.5079 234.04C34.5079 234.765 34.6625 235.336 34.9719 235.752C35.2919 236.157 35.7132 236.36 36.2359 236.36Z" fill="black"/>
<path d="M10.424 164.096C9.432 164.096 8.59467 163.877 7.912 163.44C7.22933 162.992 6.712 162.352 6.36 161.52C6.008 160.677 5.832 159.669 5.832 158.496C5.832 157.227 6.04533 156.165 6.472 155.312C6.90933 154.448 7.512 153.797 8.28 153.36C9.048 152.923 9.93867 152.704 10.952 152.704C11.4533 152.704 11.9333 152.752 12.392 152.848C12.8507 152.944 13.256 153.099 13.608 153.312L13.144 154.24C12.856 154.048 12.5253 153.915 12.152 153.84C11.7787 153.755 11.384 153.712 10.968 153.712C9.76267 153.712 8.79733 154.096 8.072 154.864C7.35733 155.632 7 156.779 7 158.304C7 158.539 7.01067 158.832 7.032 159.184C7.064 159.525 7.128 159.867 7.224 160.208L6.824 159.904C6.94133 159.349 7.17067 158.88 7.512 158.496C7.85333 158.101 8.28 157.803 8.792 157.6C9.304 157.397 9.864 157.296 10.472 157.296C11.2187 157.296 11.8747 157.435 12.44 157.712C13.0053 157.989 13.448 158.379 13.768 158.88C14.088 159.381 14.248 159.973 14.248 160.656C14.248 161.349 14.0827 161.957 13.752 162.48C13.4213 162.992 12.9627 163.392 12.376 163.68C11.8 163.957 11.1493 164.096 10.424 164.096ZM10.376 163.12C10.9093 163.12 11.3787 163.024 11.784 162.832C12.2 162.629 12.5253 162.347 12.76 161.984C12.9947 161.611 13.112 161.179 13.112 160.688C13.112 159.952 12.856 159.365 12.344 158.928C11.8427 158.491 11.16 158.272 10.296 158.272C9.72 158.272 9.21867 158.379 8.792 158.592C8.36533 158.805 8.02933 159.099 7.784 159.472C7.53867 159.835 7.416 160.251 7.416 160.72C7.416 161.125 7.528 161.515 7.752 161.888C7.976 162.251 8.30667 162.549 8.744 162.784C9.192 163.008 9.736 163.12 10.376 163.12ZM20.046 164.096C19.182 164.096 18.414 163.872 17.742 163.424C17.07 162.965 16.542 162.315 16.158 161.472C15.774 160.619 15.582 159.595 15.582 158.4C15.582 157.205 15.774 156.187 16.158 155.344C16.542 154.491 17.07 153.84 17.742 153.392C18.414 152.933 19.182 152.704 20.046 152.704C20.91 152.704 21.678 152.933 22.35 153.392C23.022 153.84 23.55 154.491 23.934 155.344C24.3287 156.187 24.526 157.205 24.526 158.4C24.526 159.595 24.3287 160.619 23.934 161.472C23.55 162.315 23.022 162.965 22.35 163.424C21.678 163.872 20.91 164.096 20.046 164.096ZM20.046 163.04C20.7073 163.04 21.2833 162.864 21.774 162.512C22.2647 162.149 22.6487 161.627 22.926 160.944C23.2033 160.251 23.342 159.403 23.342 158.4C23.342 157.397 23.2033 156.555 22.926 155.872C22.6487 155.179 22.2647 154.656 21.774 154.304C21.2833 153.941 20.7073 153.76 20.046 153.76C19.406 153.76 18.8353 153.941 18.334 154.304C17.8327 154.656 17.4433 155.179 17.166 155.872C16.8887 156.555 16.75 157.397 16.75 158.4C16.75 159.403 16.8887 160.251 17.166 160.944C17.4433 161.627 17.8327 162.149 18.334 162.512C18.8353 162.864 19.406 163.04 20.046 163.04ZM27.6798 164L35.3278 152.8H36.2718L28.6238 164H27.6798ZM28.5438 158.8C28.0424 158.8 27.5998 158.677 27.2158 158.432C26.8318 158.176 26.5331 157.819 26.3198 157.36C26.1171 156.901 26.0158 156.368 26.0158 155.76C26.0158 155.152 26.1171 154.619 26.3198 154.16C26.5331 153.701 26.8318 153.349 27.2158 153.104C27.5998 152.848 28.0424 152.72 28.5438 152.72C29.0451 152.72 29.4824 152.848 29.8558 153.104C30.2398 153.349 30.5384 153.701 30.7518 154.16C30.9651 154.619 31.0718 155.152 31.0718 155.76C31.0718 156.368 30.9651 156.901 30.7518 157.36C30.5384 157.819 30.2398 158.176 29.8558 158.432C29.4824 158.677 29.0451 158.8 28.5438 158.8ZM28.5438 158.08C29.0664 158.08 29.4824 157.877 29.7918 157.472C30.1118 157.056 30.2718 156.485 30.2718 155.76C30.2718 155.035 30.1118 154.469 29.7918 154.064C29.4824 153.648 29.0664 153.44 28.5438 153.44C28.0104 153.44 27.5891 153.648 27.2798 154.064C26.9704 154.469 26.8158 155.035 26.8158 155.76C26.8158 156.485 26.9704 157.056 27.2798 157.472C27.5891 157.877 28.0104 158.08 28.5438 158.08ZM35.4078 164.08C34.9171 164.08 34.4798 163.957 34.0958 163.712C33.7118 163.456 33.4131 163.099 33.1998 162.64C32.9864 162.181 32.8798 161.648 32.8798 161.04C32.8798 160.432 32.9864 159.899 33.1998 159.44C33.4131 158.981 33.7118 158.629 34.0958 158.384C34.4798 158.128 34.9171 158 35.4078 158C35.9198 158 36.3624 158.128 36.7358 158.384C37.1198 158.629 37.4131 158.981 37.6158 159.44C37.8291 159.899 37.9358 160.432 37.9358 161.04C37.9358 161.648 37.8291 162.181 37.6158 162.64C37.4131 163.099 37.1198 163.456 36.7358 163.712C36.3624 163.957 35.9198 164.08 35.4078 164.08ZM35.4078 163.36C35.9304 163.36 36.3464 163.157 36.6558 162.752C36.9758 162.336 37.1358 161.765 37.1358 161.04C37.1358 160.315 36.9758 159.749 36.6558 159.344C36.3464 158.928 35.9304 158.72 35.4078 158.72C34.8851 158.72 34.4638 158.928 34.1438 159.344C33.8344 159.749 33.6798 160.315 33.6798 161.04C33.6798 161.765 33.8344 162.336 34.1438 162.752C34.4638 163.157 34.8851 163.36 35.4078 163.36Z" fill="black"/>
<path d="M11.088 91.0959C10.192 91.0959 9.41867 90.9679 8.768 90.7119C8.128 90.4559 7.632 90.0879 7.28 89.6079C6.93867 89.1173 6.768 88.5413 6.768 87.8799C6.768 87.2399 6.93333 86.6959 7.264 86.2479C7.60533 85.7893 8.096 85.4373 8.736 85.1919C9.38667 84.9466 10.1707 84.8239 11.088 84.8239C11.9947 84.8239 12.7733 84.9466 13.424 85.1919C14.0747 85.4373 14.5707 85.7893 14.912 86.2479C15.264 86.6959 15.44 87.2399 15.44 87.8799C15.44 88.5413 15.264 89.1173 14.912 89.6079C14.56 90.0879 14.0587 90.4559 13.408 90.7119C12.7573 90.9679 11.984 91.0959 11.088 91.0959ZM11.088 90.1199C12.08 90.1199 12.8533 89.9173 13.408 89.5119C13.9733 89.1066 14.256 88.5573 14.256 87.8639C14.256 87.1706 13.9733 86.6266 13.408 86.2319C12.8533 85.8266 12.08 85.6239 11.088 85.6239C10.096 85.6239 9.32267 85.8266 8.768 86.2319C8.21333 86.6266 7.936 87.1706 7.936 87.8639C7.936 88.5573 8.21333 89.1066 8.768 89.5119C9.32267 89.9173 10.096 90.1199 11.088 90.1199ZM11.088 85.4799C10.256 85.4799 9.54667 85.3679 8.96 85.1439C8.384 84.9199 7.94133 84.5999 7.632 84.1839C7.32267 83.7573 7.168 83.2506 7.168 82.6639C7.168 82.0453 7.328 81.5173 7.648 81.0799C7.97867 80.6319 8.43733 80.2906 9.024 80.0559C9.61067 79.8213 10.2987 79.7039 11.088 79.7039C11.8773 79.7039 12.5653 79.8213 13.152 80.0559C13.7493 80.2906 14.2133 80.6319 14.544 81.0799C14.8747 81.5173 15.04 82.0453 15.04 82.6639C15.04 83.2506 14.8853 83.7573 14.576 84.1839C14.2667 84.5999 13.8133 84.9199 13.216 85.1439C12.6293 85.3679 11.92 85.4799 11.088 85.4799ZM11.088 84.7119C11.9627 84.7119 12.6453 84.5306 13.136 84.1679C13.6267 83.8053 13.872 83.3199 13.872 82.7119C13.872 82.0719 13.616 81.5759 13.104 81.2239C12.6027 80.8613 11.9307 80.6799 11.088 80.6799C10.2453 80.6799 9.57333 80.8613 9.072 81.2239C8.57067 81.5759 8.32 82.0666 8.32 82.6959C8.32 83.3146 8.56 83.8053 9.04 84.1679C9.53067 84.5306 10.2133 84.7119 11.088 84.7119ZM21.4991 91.0959C20.6351 91.0959 19.8671 90.8719 19.1951 90.4239C18.5231 89.9653 17.9951 89.3146 17.6111 88.4719C17.2271 87.6186 17.0351 86.5946 17.0351 85.3999C17.0351 84.2053 17.2271 83.1866 17.6111 82.3439C17.9951 81.4906 18.5231 80.8399 19.1951 80.3919C19.8671 79.9333 20.6351 79.7039 21.4991 79.7039C22.3631 79.7039 23.1311 79.9333 23.8031 80.3919C24.4751 80.8399 25.0031 81.4906 25.3871 82.3439C25.7818 83.1866 25.9791 84.2053 25.9791 85.3999C25.9791 86.5946 25.7818 87.6186 25.3871 88.4719C25.0031 89.3146 24.4751 89.9653 23.8031 90.4239C23.1311 90.8719 22.3631 91.0959 21.4991 91.0959ZM21.4991 90.0399C22.1605 90.0399 22.7365 89.8639 23.2271 89.5119C23.7178 89.1493 24.1018 88.6266 24.3791 87.9439C24.6565 87.2506 24.7951 86.4026 24.7951 85.3999C24.7951 84.3973 24.6565 83.5546 24.3791 82.8719C24.1018 82.1786 23.7178 81.6559 23.2271 81.3039C22.7365 80.9413 22.1605 80.7599 21.4991 80.7599C20.8591 80.7599 20.2885 80.9413 19.7871 81.3039C19.2858 81.6559 18.8965 82.1786 18.6191 82.8719C18.3418 83.5546 18.2031 84.3973 18.2031 85.3999C18.2031 86.4026 18.3418 87.2506 18.6191 87.9439C18.8965 88.6266 19.2858 89.1493 19.7871 89.5119C20.2885 89.8639 20.8591 90.0399 21.4991 90.0399ZM29.1329 90.9999L36.7809 79.7999H37.7249L30.0769 90.9999H29.1329ZM29.9969 85.7999C29.4955 85.7999 29.0529 85.6773 28.6689 85.4319C28.2849 85.1759 27.9862 84.8186 27.7729 84.3599C27.5702 83.9013 27.4689 83.3679 27.4689 82.7599C27.4689 82.1519 27.5702 81.6186 27.7729 81.1599C27.9862 80.7013 28.2849 80.3493 28.6689 80.1039C29.0529 79.8479 29.4955 79.7199 29.9969 79.7199C30.4982 79.7199 30.9355 79.8479 31.3089 80.1039C31.6929 80.3493 31.9915 80.7013 32.2049 81.1599C32.4182 81.6186 32.5249 82.1519 32.5249 82.7599C32.5249 83.3679 32.4182 83.9013 32.2049 84.3599C31.9915 84.8186 31.6929 85.1759 31.3089 85.4319C30.9355 85.6773 30.4982 85.7999 29.9969 85.7999ZM29.9969 85.0799C30.5195 85.0799 30.9355 84.8773 31.2449 84.4719C31.5649 84.0559 31.7249 83.4853 31.7249 82.7599C31.7249 82.0346 31.5649 81.4693 31.2449 81.0639C30.9355 80.6479 30.5195 80.4399 29.9969 80.4399C29.4635 80.4399 29.0422 80.6479 28.7329 81.0639C28.4235 81.4693 28.2689 82.0346 28.2689 82.7599C28.2689 83.4853 28.4235 84.0559 28.7329 84.4719C29.0422 84.8773 29.4635 85.0799 29.9969 85.0799ZM36.8609 91.0799C36.3702 91.0799 35.9329 90.9573 35.5489 90.7119C35.1649 90.4559 34.8662 90.0986 34.6529 89.6399C34.4395 89.1813 34.3329 88.6479 34.3329 88.0399C34.3329 87.4319 34.4395 86.8986 34.6529 86.4399C34.8662 85.9813 35.1649 85.6293 35.5489 85.3839C35.9329 85.1279 36.3702 84.9999 36.8609 84.9999C37.3729 84.9999 37.8155 85.1279 38.1889 85.3839C38.5729 85.6293 38.8662 85.9813 39.0689 86.4399C39.2822 86.8986 39.3889 87.4319 39.3889 88.0399C39.3889 88.6479 39.2822 89.1813 39.0689 89.6399C38.8662 90.0986 38.5729 90.4559 38.1889 90.7119C37.8155 90.9573 37.3729 91.0799 36.8609 91.0799ZM36.8609 90.3599C37.3835 90.3599 37.7995 90.1573 38.1089 89.7519C38.4289 89.3359 38.5889 88.7653 38.5889 88.0399C38.5889 87.3146 38.4289 86.7493 38.1089 86.3439C37.7995 85.9279 37.3835 85.7199 36.8609 85.7199C36.3382 85.7199 35.9169 85.9279 35.5969 86.3439C35.2875 86.7493 35.1329 87.3146 35.1329 88.0399C35.1329 88.7653 35.2875 89.3359 35.5969 89.7519C35.9169 90.1573 36.3382 90.3599 36.8609 90.3599Z" fill="black"/>
<path d="M2.784 19.9999V9.27994L3.296 9.82394H0.144V8.79994H3.936V19.9999H2.784ZM11.0773 20.0959C10.2133 20.0959 9.44525 19.8719 8.77325 19.4239C8.10125 18.9653 7.57325 18.3146 7.18925 17.4719C6.80525 16.6186 6.61325 15.5946 6.61325 14.3999C6.61325 13.2053 6.80525 12.1866 7.18925 11.3439C7.57325 10.4906 8.10125 9.83994 8.77325 9.39194C9.44525 8.93327 10.2133 8.70394 11.0773 8.70394C11.9413 8.70394 12.7093 8.93327 13.3813 9.39194C14.0533 9.83994 14.5813 10.4906 14.9653 11.3439C15.3599 12.1866 15.5573 13.2053 15.5573 14.3999C15.5573 15.5946 15.3599 16.6186 14.9653 17.4719C14.5813 18.3146 14.0533 18.9653 13.3813 19.4239C12.7093 19.8719 11.9413 20.0959 11.0773 20.0959ZM11.0773 19.0399C11.7386 19.0399 12.3146 18.8639 12.8053 18.5119C13.2959 18.1493 13.6799 17.6266 13.9573 16.9439C14.2346 16.2506 14.3733 15.4026 14.3733 14.3999C14.3733 13.3973 14.2346 12.5546 13.9573 11.8719C13.6799 11.1786 13.2959 10.6559 12.8053 10.3039C12.3146 9.94127 11.7386 9.75994 11.0773 9.75994C10.4373 9.75994 9.86658 9.94127 9.36525 10.3039C8.86392 10.6559 8.47458 11.1786 8.19725 11.8719C7.91992 12.5546 7.78125 13.3973 7.78125 14.3999C7.78125 15.4026 7.91992 16.2506 8.19725 16.9439C8.47458 17.6266 8.86392 18.1493 9.36525 18.5119C9.86658 18.8639 10.4373 19.0399 11.0773 19.0399ZM21.671 20.0959C20.807 20.0959 20.039 19.8719 19.367 19.4239C18.695 18.9653 18.167 18.3146 17.783 17.4719C17.399 16.6186 17.207 15.5946 17.207 14.3999C17.207 13.2053 17.399 12.1866 17.783 11.3439C18.167 10.4906 18.695 9.83994 19.367 9.39194C20.039 8.93327 20.807 8.70394 21.671 8.70394C22.535 8.70394 23.303 8.93327 23.975 9.39194C24.647 9.83994 25.175 10.4906 25.559 11.3439C25.9537 12.1866 26.151 13.2053 26.151 14.3999C26.151 15.5946 25.9537 16.6186 25.559 17.4719C25.175 18.3146 24.647 18.9653 23.975 19.4239C23.303 19.8719 22.535 20.0959 21.671 20.0959ZM21.671 19.0399C22.3323 19.0399 22.9083 18.8639 23.399 18.5119C23.8897 18.1493 24.2737 17.6266 24.551 16.9439C24.8283 16.2506 24.967 15.4026 24.967 14.3999C24.967 13.3973 24.8283 12.5546 24.551 11.8719C24.2737 11.1786 23.8897 10.6559 23.399 10.3039C22.9083 9.94127 22.3323 9.75994 21.671 9.75994C21.031 9.75994 20.4603 9.94127 19.959 10.3039C19.4577 10.6559 19.0683 11.1786 18.791 11.8719C18.5137 12.5546 18.375 13.3973 18.375 14.3999C18.375 15.4026 18.5137 16.2506 18.791 16.9439C19.0683 17.6266 19.4577 18.1493 19.959 18.5119C20.4603 18.8639 21.031 19.0399 21.671 19.0399ZM29.3048 19.9999L36.9528 8.79994H37.8968L30.2488 19.9999H29.3048ZM30.1688 14.7999C29.6674 14.7999 29.2248 14.6773 28.8408 14.4319C28.4568 14.1759 28.1581 13.8186 27.9448 13.3599C27.7421 12.9013 27.6408 12.3679 27.6408 11.7599C27.6408 11.1519 27.7421 10.6186 27.9448 10.1599C28.1581 9.70127 28.4568 9.34927 28.8408 9.10394C29.2248 8.84794 29.6674 8.71994 30.1688 8.71994C30.6701 8.71994 31.1074 8.84794 31.4808 9.10394C31.8648 9.34927 32.1634 9.70127 32.3768 10.1599C32.5901 10.6186 32.6968 11.1519 32.6968 11.7599C32.6968 12.3679 32.5901 12.9013 32.3768 13.3599C32.1634 13.8186 31.8648 14.1759 31.4808 14.4319C31.1074 14.6773 30.6701 14.7999 30.1688 14.7999ZM30.1688 14.0799C30.6914 14.0799 31.1074 13.8773 31.4168 13.4719C31.7368 13.0559 31.8968 12.4853 31.8968 11.7599C31.8968 11.0346 31.7368 10.4693 31.4168 10.0639C31.1074 9.64794 30.6914 9.43994 30.1688 9.43994C29.6354 9.43994 29.2141 9.64794 28.9048 10.0639C28.5954 10.4693 28.4408 11.0346 28.4408 11.7599C28.4408 12.4853 28.5954 13.0559 28.9048 13.4719C29.2141 13.8773 29.6354 14.0799 30.1688 14.0799ZM37.0328 20.0799C36.5421 20.0799 36.1048 19.9573 35.7208 19.7119C35.3368 19.4559 35.0381 19.0986 34.8248 18.6399C34.6114 18.1813 34.5048 17.6479 34.5048 17.0399C34.5048 16.4319 34.6114 15.8986 34.8248 15.4399C35.0381 14.9813 35.3368 14.6293 35.7208 14.3839C36.1048 14.1279 36.5421 13.9999 37.0328 13.9999C37.5448 13.9999 37.9874 14.1279 38.3608 14.3839C38.7448 14.6293 39.0381 14.9813 39.2408 15.4399C39.4541 15.8986 39.5608 16.4319 39.5608 17.0399C39.5608 17.6479 39.4541 18.1813 39.2408 18.6399C39.0381 19.0986 38.7448 19.4559 38.3608 19.7119C37.9874 19.9573 37.5448 20.0799 37.0328 20.0799ZM37.0328 19.3599C37.5554 19.3599 37.9714 19.1573 38.2808 18.7519C38.6008 18.3359 38.7608 17.7653 38.7608 17.0399C38.7608 16.3146 38.6008 15.7493 38.2808 15.3439C37.9714 14.9279 37.5554 14.7199 37.0328 14.7199C36.5101 14.7199 36.0888 14.9279 35.7688 15.3439C35.4594 15.7493 35.3048 16.3146 35.3048 17.0399C35.3048 17.7653 35.4594 18.3359 35.7688 18.7519C36.0888 19.1573 36.5101 19.3599 37.0328 19.3599Z" fill="black"/>
<path d="M59.546 437V436.286L63.62 432.296C63.9933 431.932 64.2733 431.615 64.46 431.344C64.6467 431.064 64.7727 430.803 64.838 430.56C64.9033 430.317 64.936 430.089 64.936 429.874C64.936 429.305 64.74 428.857 64.348 428.53C63.9653 428.203 63.396 428.04 62.64 428.04C62.0613 428.04 61.548 428.129 61.1 428.306C60.6613 428.483 60.2833 428.759 59.966 429.132L59.252 428.516C59.6347 428.068 60.1247 427.723 60.722 427.48C61.3193 427.237 61.9867 427.116 62.724 427.116C63.3867 427.116 63.9607 427.223 64.446 427.438C64.9313 427.643 65.3047 427.947 65.566 428.348C65.8367 428.749 65.972 429.221 65.972 429.762C65.972 430.079 65.9253 430.392 65.832 430.7C65.748 431.008 65.5893 431.335 65.356 431.68C65.132 432.016 64.8007 432.399 64.362 432.828L60.624 436.496L60.344 436.104H66.42V437H59.546ZM71.5637 437.084C70.8077 437.084 70.1357 436.888 69.5477 436.496C68.9597 436.095 68.4977 435.525 68.1617 434.788C67.8257 434.041 67.6577 433.145 67.6577 432.1C67.6577 431.055 67.8257 430.163 68.1617 429.426C68.4977 428.679 68.9597 428.11 69.5477 427.718C70.1357 427.317 70.8077 427.116 71.5637 427.116C72.3197 427.116 72.9917 427.317 73.5797 427.718C74.1677 428.11 74.6297 428.679 74.9657 429.426C75.311 430.163 75.4837 431.055 75.4837 432.1C75.4837 433.145 75.311 434.041 74.9657 434.788C74.6297 435.525 74.1677 436.095 73.5797 436.496C72.9917 436.888 72.3197 437.084 71.5637 437.084ZM71.5637 436.16C72.1424 436.16 72.6464 436.006 73.0757 435.698C73.505 435.381 73.841 434.923 74.0837 434.326C74.3264 433.719 74.4477 432.977 74.4477 432.1C74.4477 431.223 74.3264 430.485 74.0837 429.888C73.841 429.281 73.505 428.824 73.0757 428.516C72.6464 428.199 72.1424 428.04 71.5637 428.04C71.0037 428.04 70.5044 428.199 70.0657 428.516C69.627 428.824 69.2864 429.281 69.0437 429.888C68.801 430.485 68.6797 431.223 68.6797 432.1C68.6797 432.977 68.801 433.719 69.0437 434.326C69.2864 434.923 69.627 435.381 70.0657 435.698C70.5044 436.006 71.0037 436.16 71.5637 436.16ZM78.2432 437L84.9352 427.2H85.7612L79.0692 437H78.2432ZM78.9992 432.45C78.5606 432.45 78.1732 432.343 77.8372 432.128C77.5012 431.904 77.2399 431.591 77.0532 431.19C76.8759 430.789 76.7872 430.322 76.7872 429.79C76.7872 429.258 76.8759 428.791 77.0532 428.39C77.2399 427.989 77.5012 427.681 77.8372 427.466C78.1732 427.242 78.5606 427.13 78.9992 427.13C79.4379 427.13 79.8206 427.242 80.1472 427.466C80.4832 427.681 80.7446 427.989 80.9312 428.39C81.1179 428.791 81.2112 429.258 81.2112 429.79C81.2112 430.322 81.1179 430.789 80.9312 431.19C80.7446 431.591 80.4832 431.904 80.1472 432.128C79.8206 432.343 79.4379 432.45 78.9992 432.45ZM78.9992 431.82C79.4566 431.82 79.8206 431.643 80.0912 431.288C80.3712 430.924 80.5112 430.425 80.5112 429.79C80.5112 429.155 80.3712 428.661 80.0912 428.306C79.8206 427.942 79.4566 427.76 78.9992 427.76C78.5326 427.76 78.1639 427.942 77.8932 428.306C77.6226 428.661 77.4872 429.155 77.4872 429.79C77.4872 430.425 77.6226 430.924 77.8932 431.288C78.1639 431.643 78.5326 431.82 78.9992 431.82ZM85.0052 437.07C84.5759 437.07 84.1932 436.963 83.8572 436.748C83.5212 436.524 83.2599 436.211 83.0732 435.81C82.8866 435.409 82.7932 434.942 82.7932 434.41C82.7932 433.878 82.8866 433.411 83.0732 433.01C83.2599 432.609 83.5212 432.301 83.8572 432.086C84.1932 431.862 84.5759 431.75 85.0052 431.75C85.4532 431.75 85.8406 431.862 86.1672 432.086C86.5032 432.301 86.7599 432.609 86.9372 433.01C87.1239 433.411 87.2172 433.878 87.2172 434.41C87.2172 434.942 87.1239 435.409 86.9372 435.81C86.7599 436.211 86.5032 436.524 86.1672 436.748C85.8406 436.963 85.4532 437.07 85.0052 437.07ZM85.0052 436.44C85.4626 436.44 85.8266 436.263 86.0972 435.908C86.3772 435.544 86.5172 435.045 86.5172 434.41C86.5172 433.775 86.3772 433.281 86.0972 432.926C85.8266 432.562 85.4626 432.38 85.0052 432.38C84.5479 432.38 84.1792 432.562 83.8992 432.926C83.6286 433.281 83.4932 433.775 83.4932 434.41C83.4932 435.045 83.6286 435.544 83.8992 435.908C84.1792 436.263 84.5479 436.44 85.0052 436.44ZM93.0107 439.786C92.6654 439.786 92.334 439.73 92.0167 439.618C91.7087 439.506 91.4427 439.338 91.2187 439.114L91.6807 438.372C91.8674 438.549 92.068 438.685 92.2827 438.778C92.5067 438.881 92.754 438.932 93.0247 438.932C93.3514 438.932 93.6314 438.839 93.8647 438.652C94.1074 438.475 94.336 438.157 94.5507 437.7L95.0267 436.622L95.1387 436.468L98.1627 429.65H99.1427L95.4607 437.882C95.2554 438.358 95.0267 438.736 94.7747 439.016C94.532 439.296 94.266 439.492 93.9767 439.604C93.6874 439.725 93.3654 439.786 93.0107 439.786ZM94.9707 437.21L91.5827 429.65H92.6187L95.6147 436.398L94.9707 437.21ZM103.566 437.07C102.838 437.07 102.185 436.911 101.606 436.594C101.037 436.267 100.589 435.824 100.262 435.264C99.9356 434.695 99.7723 434.046 99.7723 433.318C99.7723 432.581 99.9356 431.932 100.262 431.372C100.589 430.812 101.037 430.373 101.606 430.056C102.185 429.739 102.838 429.58 103.566 429.58C104.192 429.58 104.756 429.701 105.26 429.944C105.764 430.187 106.161 430.551 106.45 431.036L105.708 431.54C105.456 431.167 105.144 430.891 104.77 430.714C104.397 430.537 103.991 430.448 103.552 430.448C103.03 430.448 102.558 430.569 102.138 430.812C101.718 431.045 101.387 431.377 101.144 431.806C100.902 432.235 100.78 432.739 100.78 433.318C100.78 433.897 100.902 434.401 101.144 434.83C101.387 435.259 101.718 435.595 102.138 435.838C102.558 436.071 103.03 436.188 103.552 436.188C103.991 436.188 104.397 436.099 104.77 435.922C105.144 435.745 105.456 435.474 105.708 435.11L106.45 435.614C106.161 436.09 105.764 436.454 105.26 436.706C104.756 436.949 104.192 437.07 103.566 437.07ZM108.375 437V429.65H109.369V435.488L114.283 429.65H115.165V437H114.171V431.148L109.271 437H108.375ZM116.67 436.986L116.74 436.132C116.805 436.141 116.866 436.155 116.922 436.174C116.987 436.183 117.043 436.188 117.09 436.188C117.388 436.188 117.626 436.076 117.804 435.852C117.99 435.628 118.13 435.329 118.224 434.956C118.317 434.583 118.382 434.163 118.42 433.696C118.457 433.22 118.49 432.744 118.518 432.268L118.644 429.65H124.034V437H123.04V430.224L123.292 430.518H119.288L119.526 430.21L119.414 432.338C119.386 432.973 119.334 433.579 119.26 434.158C119.194 434.737 119.087 435.245 118.938 435.684C118.798 436.123 118.602 436.468 118.35 436.72C118.098 436.963 117.776 437.084 117.384 437.084C117.272 437.084 117.155 437.075 117.034 437.056C116.922 437.037 116.8 437.014 116.67 436.986ZM126.859 437V429.65H127.853V435.488L132.767 429.65H133.649V437H132.655V431.148L127.755 437H126.859ZM136.498 437V429.65H137.492V435.488L142.406 429.65H143.288V437H142.294V431.148L137.394 437H136.498ZM139.83 428.586C139.214 428.586 138.715 428.432 138.332 428.124C137.959 427.807 137.763 427.354 137.744 426.766H138.458C138.467 427.139 138.598 427.433 138.85 427.648C139.102 427.863 139.429 427.97 139.83 427.97C140.231 427.97 140.558 427.863 140.81 427.648C141.071 427.433 141.207 427.139 141.216 426.766H141.93C141.921 427.354 141.725 427.807 141.342 428.124C140.959 428.432 140.455 428.586 139.83 428.586ZM151.467 439.716C150.953 438.867 150.552 437.887 150.263 436.776C149.983 435.656 149.843 434.452 149.843 433.164C149.843 431.876 149.983 430.672 150.263 429.552C150.552 428.423 150.953 427.443 151.467 426.612H152.419C151.868 427.573 151.462 428.595 151.201 429.678C150.949 430.751 150.823 431.913 150.823 433.164C150.823 434.415 150.949 435.581 151.201 436.664C151.462 437.737 151.868 438.755 152.419 439.716H151.467ZM154.408 437V429.65H159.616V430.518H155.15L155.402 430.266V437H154.408ZM163.735 437.07C163.026 437.07 162.386 436.911 161.817 436.594C161.257 436.267 160.814 435.824 160.487 435.264C160.16 434.695 159.997 434.046 159.997 433.318C159.997 432.581 160.16 431.932 160.487 431.372C160.814 430.812 161.257 430.373 161.817 430.056C162.377 429.739 163.016 429.58 163.735 429.58C164.463 429.58 165.107 429.739 165.667 430.056C166.236 430.373 166.68 430.812 166.997 431.372C167.324 431.932 167.487 432.581 167.487 433.318C167.487 434.046 167.324 434.695 166.997 435.264C166.68 435.824 166.236 436.267 165.667 436.594C165.098 436.911 164.454 437.07 163.735 437.07ZM163.735 436.188C164.267 436.188 164.738 436.071 165.149 435.838C165.56 435.595 165.882 435.259 166.115 434.83C166.358 434.391 166.479 433.887 166.479 433.318C166.479 432.739 166.358 432.235 166.115 431.806C165.882 431.377 165.56 431.045 165.149 430.812C164.738 430.569 164.272 430.448 163.749 430.448C163.226 430.448 162.76 430.569 162.349 430.812C161.938 431.045 161.612 431.377 161.369 431.806C161.126 432.235 161.005 432.739 161.005 433.318C161.005 433.887 161.126 434.391 161.369 434.83C161.612 435.259 161.938 435.595 162.349 435.838C162.76 436.071 163.222 436.188 163.735 436.188ZM173.405 437.07C172.771 437.07 172.197 436.925 171.683 436.636C171.17 436.337 170.759 435.913 170.451 435.362C170.153 434.802 170.003 434.121 170.003 433.318C170.003 432.515 170.153 431.839 170.451 431.288C170.75 430.728 171.156 430.303 171.669 430.014C172.183 429.725 172.761 429.58 173.405 429.58C174.105 429.58 174.731 429.739 175.281 430.056C175.841 430.364 176.28 430.803 176.597 431.372C176.915 431.932 177.073 432.581 177.073 433.318C177.073 434.065 176.915 434.718 176.597 435.278C176.28 435.838 175.841 436.277 175.281 436.594C174.731 436.911 174.105 437.07 173.405 437.07ZM169.611 439.716V429.65H170.563V431.862L170.465 433.332L170.605 434.816V439.716H169.611ZM173.335 436.188C173.858 436.188 174.325 436.071 174.735 435.838C175.146 435.595 175.473 435.259 175.715 434.83C175.958 434.391 176.079 433.887 176.079 433.318C176.079 432.749 175.958 432.249 175.715 431.82C175.473 431.391 175.146 431.055 174.735 430.812C174.325 430.569 173.858 430.448 173.335 430.448C172.813 430.448 172.341 430.569 171.921 430.812C171.511 431.055 171.184 431.391 170.941 431.82C170.708 432.249 170.591 432.749 170.591 433.318C170.591 433.887 170.708 434.391 170.941 434.83C171.184 435.259 171.511 435.595 171.921 435.838C172.341 436.071 172.813 436.188 173.335 436.188ZM179.209 437V429.65H180.203V435.488L185.117 429.65H185.999V437H185.005V431.148L180.105 437H179.209ZM190.671 437.084C191.278 437.084 191.824 436.991 192.309 436.804C192.804 436.617 193.196 436.361 193.485 436.034C193.775 435.698 193.919 435.311 193.919 434.872C193.919 434.312 193.681 433.869 193.205 433.542C192.739 433.215 192.085 433.052 191.245 433.052L191.203 433.318C191.679 433.318 192.104 433.243 192.477 433.094C192.851 432.945 193.149 432.735 193.373 432.464C193.597 432.193 193.709 431.876 193.709 431.512C193.709 431.101 193.569 430.751 193.289 430.462C193.009 430.163 192.631 429.935 192.155 429.776C191.689 429.617 191.161 429.547 190.573 429.566C190.144 429.566 189.715 429.627 189.285 429.748C188.865 429.86 188.441 430.028 188.011 430.252L188.291 431.022C188.674 430.826 189.061 430.681 189.453 430.588C189.845 430.485 190.223 430.429 190.587 430.42C190.989 430.42 191.348 430.467 191.665 430.56C191.983 430.653 192.23 430.793 192.407 430.98C192.594 431.167 192.687 431.391 192.687 431.652C192.687 431.895 192.608 432.105 192.449 432.282C192.3 432.459 192.085 432.595 191.805 432.688C191.525 432.781 191.203 432.828 190.839 432.828H189.649V433.556H190.909C191.525 433.556 192.011 433.668 192.365 433.892C192.72 434.107 192.897 434.41 192.897 434.802C192.897 435.073 192.804 435.315 192.617 435.53C192.431 435.745 192.169 435.913 191.833 436.034C191.497 436.155 191.101 436.221 190.643 436.23C190.186 436.23 189.724 436.165 189.257 436.034C188.791 435.894 188.38 435.693 188.025 435.432L187.703 436.174C188.105 436.482 188.567 436.711 189.089 436.86C189.612 437.009 190.139 437.084 190.671 437.084ZM199.2 437.07C198.49 437.07 197.851 436.911 197.282 436.594C196.722 436.267 196.278 435.824 195.952 435.264C195.625 434.695 195.462 434.046 195.462 433.318C195.462 432.581 195.625 431.932 195.952 431.372C196.278 430.812 196.722 430.373 197.282 430.056C197.842 429.739 198.481 429.58 199.2 429.58C199.928 429.58 200.572 429.739 201.132 430.056C201.701 430.373 202.144 430.812 202.462 431.372C202.788 431.932 202.952 432.581 202.952 433.318C202.952 434.046 202.788 434.695 202.462 435.264C202.144 435.824 201.701 436.267 201.132 436.594C200.562 436.911 199.918 437.07 199.2 437.07ZM199.2 436.188C199.732 436.188 200.203 436.071 200.614 435.838C201.024 435.595 201.346 435.259 201.58 434.83C201.822 434.391 201.944 433.887 201.944 433.318C201.944 432.739 201.822 432.235 201.58 431.806C201.346 431.377 201.024 431.045 200.614 430.812C200.203 430.569 199.736 430.448 199.214 430.448C198.691 430.448 198.224 430.569 197.814 430.812C197.403 431.045 197.076 431.377 196.834 431.806C196.591 432.235 196.47 432.739 196.47 433.318C196.47 433.887 196.591 434.391 196.834 434.83C197.076 435.259 197.403 435.595 197.814 435.838C198.224 436.071 198.686 436.188 199.2 436.188ZM205.076 437V429.65H206.07V432.898H210.704V429.65H211.698V437H210.704V433.752H206.07V437H205.076ZM215.923 437V430.252L216.175 430.518H213.137V429.65H219.703V430.518H216.665L216.917 430.252V437H215.923ZM225.705 437V435.376L225.663 435.11V432.394C225.663 431.769 225.485 431.288 225.131 430.952C224.785 430.616 224.267 430.448 223.577 430.448C223.101 430.448 222.648 430.527 222.219 430.686C221.789 430.845 221.425 431.055 221.127 431.316L220.679 430.574C221.052 430.257 221.5 430.014 222.023 429.846C222.545 429.669 223.096 429.58 223.675 429.58C224.627 429.58 225.359 429.818 225.873 430.294C226.395 430.761 226.657 431.475 226.657 432.436V437H225.705ZM223.171 437.07C222.62 437.07 222.139 436.981 221.729 436.804C221.327 436.617 221.019 436.365 220.805 436.048C220.59 435.721 220.483 435.348 220.483 434.928C220.483 434.545 220.571 434.2 220.749 433.892C220.935 433.575 221.234 433.323 221.645 433.136C222.065 432.94 222.625 432.842 223.325 432.842H225.859V433.584H223.353C222.643 433.584 222.149 433.71 221.869 433.962C221.598 434.214 221.463 434.527 221.463 434.9C221.463 435.32 221.626 435.656 221.953 435.908C222.279 436.16 222.737 436.286 223.325 436.286C223.885 436.286 224.365 436.16 224.767 435.908C225.177 435.647 225.476 435.273 225.663 434.788L225.887 435.474C225.7 435.959 225.373 436.347 224.907 436.636C224.449 436.925 223.871 437.07 223.171 437.07ZM227.959 436.986L228.029 436.132C228.094 436.141 228.155 436.155 228.211 436.174C228.276 436.183 228.332 436.188 228.379 436.188C228.677 436.188 228.915 436.076 229.093 435.852C229.279 435.628 229.419 435.329 229.513 434.956C229.606 434.583 229.671 434.163 229.709 433.696C229.746 433.22 229.779 432.744 229.807 432.268L229.933 429.65H235.323V437H234.329V430.224L234.581 430.518H230.577L230.815 430.21L230.703 432.338C230.675 432.973 230.623 433.579 230.549 434.158C230.483 434.737 230.376 435.245 230.227 435.684C230.087 436.123 229.891 436.468 229.639 436.72C229.387 436.963 229.065 437.084 228.673 437.084C228.561 437.084 228.444 437.075 228.323 437.056C228.211 437.037 228.089 437.014 227.959 436.986ZM241.312 432.24C242.236 432.249 242.936 432.455 243.412 432.856C243.898 433.257 244.14 433.836 244.14 434.592C244.14 435.376 243.879 435.978 243.356 436.398C242.843 436.818 242.096 437.023 241.116 437.014L238.148 437V429.65H239.142V432.212L241.312 432.24ZM241.06 436.258C241.742 436.267 242.255 436.132 242.6 435.852C242.955 435.563 243.132 435.143 243.132 434.592C243.132 434.041 242.96 433.64 242.614 433.388C242.269 433.127 241.751 432.991 241.06 432.982L239.142 432.954V436.23L241.06 436.258ZM246.037 437V429.65H247.031V432.898H251.665V429.65H252.659V437H251.665V433.752H247.031V437H246.037ZM260.048 437V435.376L260.006 435.11V432.394C260.006 431.769 259.829 431.288 259.474 430.952C259.129 430.616 258.611 430.448 257.92 430.448C257.444 430.448 256.992 430.527 256.562 430.686C256.133 430.845 255.769 431.055 255.47 431.316L255.022 430.574C255.396 430.257 255.844 430.014 256.366 429.846C256.889 429.669 257.44 429.58 258.018 429.58C258.97 429.58 259.703 429.818 260.216 430.294C260.739 430.761 261 431.475 261 432.436V437H260.048ZM257.514 437.07C256.964 437.07 256.483 436.981 256.072 436.804C255.671 436.617 255.363 436.365 255.148 436.048C254.934 435.721 254.826 435.348 254.826 434.928C254.826 434.545 254.915 434.2 255.092 433.892C255.279 433.575 255.578 433.323 255.988 433.136C256.408 432.94 256.968 432.842 257.668 432.842H260.202V433.584H257.696C256.987 433.584 256.492 433.71 256.212 433.962C255.942 434.214 255.806 434.527 255.806 434.9C255.806 435.32 255.97 435.656 256.296 435.908C256.623 436.16 257.08 436.286 257.668 436.286C258.228 436.286 258.709 436.16 259.11 435.908C259.521 435.647 259.82 435.273 260.006 434.788L260.23 435.474C260.044 435.959 259.717 436.347 259.25 436.636C258.793 436.925 258.214 437.07 257.514 437.07ZM268.392 437V434.354L268.574 434.564H266.082C265.14 434.564 264.402 434.359 263.87 433.948C263.338 433.537 263.072 432.94 263.072 432.156C263.072 431.316 263.357 430.691 263.926 430.28C264.496 429.86 265.256 429.65 266.208 429.65H269.302V437H268.392ZM263.016 437L265.032 434.172H266.068L264.094 437H263.016ZM268.392 434.06V430.224L268.574 430.518H266.236C265.555 430.518 265.023 430.649 264.64 430.91C264.267 431.171 264.08 431.596 264.08 432.184C264.08 433.276 264.776 433.822 266.166 433.822H268.574L268.392 434.06ZM278.825 437.07C278.115 437.07 277.476 436.911 276.907 436.594C276.347 436.267 275.903 435.824 275.577 435.264C275.25 434.695 275.087 434.046 275.087 433.318C275.087 432.581 275.25 431.932 275.577 431.372C275.903 430.812 276.347 430.373 276.907 430.056C277.467 429.739 278.106 429.58 278.825 429.58C279.553 429.58 280.197 429.739 280.757 430.056C281.326 430.373 281.769 430.812 282.087 431.372C282.413 431.932 282.577 432.581 282.577 433.318C282.577 434.046 282.413 434.695 282.087 435.264C281.769 435.824 281.326 436.267 280.757 436.594C280.187 436.911 279.543 437.07 278.825 437.07ZM278.825 436.188C279.357 436.188 279.828 436.071 280.239 435.838C280.649 435.595 280.971 435.259 281.205 434.83C281.447 434.391 281.569 433.887 281.569 433.318C281.569 432.739 281.447 432.235 281.205 431.806C280.971 431.377 280.649 431.045 280.239 430.812C279.828 430.569 279.361 430.448 278.839 430.448C278.316 430.448 277.849 430.569 277.439 430.812C277.028 431.045 276.701 431.377 276.459 431.806C276.216 432.235 276.095 432.739 276.095 433.318C276.095 433.887 276.216 434.391 276.459 434.83C276.701 435.259 277.028 435.595 277.439 435.838C277.849 436.071 278.311 436.188 278.825 436.188ZM287.781 437.07C287.053 437.07 286.4 436.911 285.821 436.594C285.252 436.267 284.804 435.824 284.477 435.264C284.15 434.695 283.987 434.046 283.987 433.318C283.987 432.581 284.15 431.932 284.477 431.372C284.804 430.812 285.252 430.373 285.821 430.056C286.4 429.739 287.053 429.58 287.781 429.58C288.406 429.58 288.971 429.701 289.475 429.944C289.979 430.187 290.376 430.551 290.665 431.036L289.923 431.54C289.671 431.167 289.358 430.891 288.985 430.714C288.612 430.537 288.206 430.448 287.767 430.448C287.244 430.448 286.773 430.569 286.353 430.812C285.933 431.045 285.602 431.377 285.359 431.806C285.116 432.235 284.995 432.739 284.995 433.318C284.995 433.897 285.116 434.401 285.359 434.83C285.602 435.259 285.933 435.595 286.353 435.838C286.773 436.071 287.244 436.188 287.767 436.188C288.206 436.188 288.612 436.099 288.985 435.922C289.358 435.745 289.671 435.474 289.923 435.11L290.665 435.614C290.376 436.09 289.979 436.454 289.475 436.706C288.971 436.949 288.406 437.07 287.781 437.07ZM295.754 432.24C296.678 432.249 297.378 432.455 297.854 432.856C298.339 433.257 298.582 433.836 298.582 434.592C298.582 435.376 298.32 435.978 297.798 436.398C297.284 436.818 296.538 437.023 295.558 437.014L292.59 437V429.65H293.584V432.212L295.754 432.24ZM295.502 436.258C296.183 436.267 296.696 436.132 297.042 435.852C297.396 435.563 297.574 435.143 297.574 434.592C297.574 434.041 297.401 433.64 297.056 433.388C296.71 433.127 296.192 432.991 295.502 432.982L293.584 432.954V436.23L295.502 436.258ZM300.576 439.716H299.624C300.184 438.755 300.59 437.737 300.842 436.664C301.104 435.581 301.234 434.415 301.234 433.164C301.234 431.913 301.104 430.751 300.842 429.678C300.59 428.595 300.184 427.573 299.624 426.612H300.576C301.108 427.443 301.514 428.423 301.794 429.552C302.074 430.672 302.214 431.876 302.214 433.164C302.214 434.452 302.074 435.656 301.794 436.776C301.514 437.887 301.108 438.867 300.576 439.716ZM313.79 436.524V430.518H310.248L310.164 432.156C310.145 432.651 310.113 433.136 310.066 433.612C310.029 434.088 309.959 434.527 309.856 434.928C309.763 435.32 309.627 435.642 309.45 435.894C309.273 436.137 309.044 436.277 308.764 436.314L307.77 436.132C308.059 436.141 308.297 436.039 308.484 435.824C308.671 435.6 308.815 435.297 308.918 434.914C309.021 434.531 309.095 434.097 309.142 433.612C309.189 433.117 309.226 432.613 309.254 432.1L309.352 429.65H314.784V436.524H313.79ZM307.462 438.778V436.132H315.932V438.778H314.994V437H308.4V438.778H307.462ZM322.433 437V435.376L322.391 435.11V432.394C322.391 431.769 322.214 431.288 321.859 430.952C321.514 430.616 320.996 430.448 320.305 430.448C319.829 430.448 319.376 430.527 318.947 430.686C318.518 430.845 318.154 431.055 317.855 431.316L317.407 430.574C317.78 430.257 318.228 430.014 318.751 429.846C319.274 429.669 319.824 429.58 320.403 429.58C321.355 429.58 322.088 429.818 322.601 430.294C323.124 430.761 323.385 431.475 323.385 432.436V437H322.433ZM319.899 437.07C319.348 437.07 318.868 436.981 318.457 436.804C318.056 436.617 317.748 436.365 317.533 436.048C317.318 435.721 317.211 435.348 317.211 434.928C317.211 434.545 317.3 434.2 317.477 433.892C317.664 433.575 317.962 433.323 318.373 433.136C318.793 432.94 319.353 432.842 320.053 432.842H322.587V433.584H320.081C319.372 433.584 318.877 433.71 318.597 433.962C318.326 434.214 318.191 434.527 318.191 434.9C318.191 435.32 318.354 435.656 318.681 435.908C319.008 436.16 319.465 436.286 320.053 436.286C320.613 436.286 321.094 436.16 321.495 435.908C321.906 435.647 322.204 435.273 322.391 434.788L322.615 435.474C322.428 435.959 322.102 436.347 321.635 436.636C321.178 436.925 320.599 437.07 319.899 437.07ZM326.031 437V429.65H327.025V432.814H329.265V433.724H327.025V437H326.031ZM332.359 437.07C331.659 437.07 331.029 436.911 330.469 436.594C329.919 436.267 329.485 435.824 329.167 435.264C328.85 434.695 328.691 434.046 328.691 433.318C328.691 432.581 328.85 431.932 329.167 431.372C329.485 430.812 329.919 430.373 330.469 430.056C331.029 429.739 331.659 429.58 332.359 429.58C333.059 429.58 333.685 429.739 334.235 430.056C334.786 430.373 335.22 430.812 335.537 431.372C335.855 431.932 336.013 432.581 336.013 433.318C336.013 434.046 335.855 434.695 335.537 435.264C335.22 435.824 334.786 436.267 334.235 436.594C333.685 436.911 333.059 437.07 332.359 437.07ZM332.359 436.202C332.873 436.202 333.33 436.081 333.731 435.838C334.133 435.595 334.45 435.259 334.683 434.83C334.917 434.391 335.033 433.887 335.033 433.318C335.033 432.739 334.917 432.235 334.683 431.806C334.45 431.377 334.133 431.045 333.731 430.812C333.33 430.569 332.873 430.448 332.359 430.448C331.855 430.448 331.398 430.569 330.987 430.812C330.586 431.045 330.269 431.377 330.035 431.806C329.802 432.235 329.685 432.739 329.685 433.318C329.685 433.887 329.802 434.391 330.035 434.83C330.269 435.259 330.586 435.595 330.987 435.838C331.398 436.081 331.855 436.202 332.359 436.202ZM339.271 437V430.252L339.523 430.518H336.485V429.65H343.051V430.518H340.013L340.265 430.252V437H339.271ZM63.452 454.084C62.668 454.084 61.9913 453.972 61.422 453.748C60.862 453.524 60.428 453.202 60.12 452.782C59.8213 452.353 59.672 451.849 59.672 451.27C59.672 450.71 59.8167 450.234 60.106 449.842C60.4047 449.441 60.834 449.133 61.394 448.918C61.9633 448.703 62.6493 448.596 63.452 448.596C64.2453 448.596 64.9267 448.703 65.496 448.918C66.0653 449.133 66.4993 449.441 66.798 449.842C67.106 450.234 67.26 450.71 67.26 451.27C67.26 451.849 67.106 452.353 66.798 452.782C66.49 453.202 66.0513 453.524 65.482 453.748C64.9127 453.972 64.236 454.084 63.452 454.084ZM63.452 453.23C64.32 453.23 64.9967 453.053 65.482 452.698C65.9767 452.343 66.224 451.863 66.224 451.256C66.224 450.649 65.9767 450.173 65.482 449.828C64.9967 449.473 64.32 449.296 63.452 449.296C62.584 449.296 61.9073 449.473 61.422 449.828C60.9367 450.173 60.694 450.649 60.694 451.256C60.694 451.863 60.9367 452.343 61.422 452.698C61.9073 453.053 62.584 453.23 63.452 453.23ZM63.452 449.17C62.724 449.17 62.1033 449.072 61.59 448.876C61.086 448.68 60.6987 448.4 60.428 448.036C60.1573 447.663 60.022 447.219 60.022 446.706C60.022 446.165 60.162 445.703 60.442 445.32C60.7313 444.928 61.1327 444.629 61.646 444.424C62.1593 444.219 62.7613 444.116 63.452 444.116C64.1427 444.116 64.7447 444.219 65.258 444.424C65.7807 444.629 66.1867 444.928 66.476 445.32C66.7653 445.703 66.91 446.165 66.91 446.706C66.91 447.219 66.7747 447.663 66.504 448.036C66.2333 448.4 65.8367 448.68 65.314 448.876C64.8007 449.072 64.18 449.17 63.452 449.17ZM63.452 448.498C64.2173 448.498 64.8147 448.339 65.244 448.022C65.6733 447.705 65.888 447.28 65.888 446.748C65.888 446.188 65.664 445.754 65.216 445.446C64.7773 445.129 64.1893 444.97 63.452 444.97C62.7147 444.97 62.1267 445.129 61.688 445.446C61.2493 445.754 61.03 446.183 61.03 446.734C61.03 447.275 61.24 447.705 61.66 448.022C62.0893 448.339 62.6867 448.498 63.452 448.498ZM72.5617 454.084C71.8057 454.084 71.1337 453.888 70.5457 453.496C69.9577 453.095 69.4957 452.525 69.1597 451.788C68.8237 451.041 68.6557 450.145 68.6557 449.1C68.6557 448.055 68.8237 447.163 69.1597 446.426C69.4957 445.679 69.9577 445.11 70.5457 444.718C71.1337 444.317 71.8057 444.116 72.5617 444.116C73.3177 444.116 73.9897 444.317 74.5777 444.718C75.1657 445.11 75.6277 445.679 75.9637 446.426C76.3091 447.163 76.4817 448.055 76.4817 449.1C76.4817 450.145 76.3091 451.041 75.9637 451.788C75.6277 452.525 75.1657 453.095 74.5777 453.496C73.9897 453.888 73.3177 454.084 72.5617 454.084ZM72.5617 453.16C73.1404 453.16 73.6444 453.006 74.0737 452.698C74.5031 452.381 74.8391 451.923 75.0817 451.326C75.3244 450.719 75.4457 449.977 75.4457 449.1C75.4457 448.223 75.3244 447.485 75.0817 446.888C74.8391 446.281 74.5031 445.824 74.0737 445.516C73.6444 445.199 73.1404 445.04 72.5617 445.04C72.0017 445.04 71.5024 445.199 71.0637 445.516C70.6251 445.824 70.2844 446.281 70.0417 446.888C69.7991 447.485 69.6777 448.223 69.6777 449.1C69.6777 449.977 69.7991 450.719 70.0417 451.326C70.2844 451.923 70.6251 452.381 71.0637 452.698C71.5024 453.006 72.0017 453.16 72.5617 453.16ZM79.2413 454L85.9333 444.2H86.7593L80.0673 454H79.2413ZM79.9973 449.45C79.5586 449.45 79.1713 449.343 78.8353 449.128C78.4993 448.904 78.2379 448.591 78.0513 448.19C77.8739 447.789 77.7853 447.322 77.7853 446.79C77.7853 446.258 77.8739 445.791 78.0513 445.39C78.2379 444.989 78.4993 444.681 78.8353 444.466C79.1713 444.242 79.5586 444.13 79.9973 444.13C80.4359 444.13 80.8186 444.242 81.1453 444.466C81.4813 444.681 81.7426 444.989 81.9293 445.39C82.1159 445.791 82.2093 446.258 82.2093 446.79C82.2093 447.322 82.1159 447.789 81.9293 448.19C81.7426 448.591 81.4813 448.904 81.1453 449.128C80.8186 449.343 80.4359 449.45 79.9973 449.45ZM79.9973 448.82C80.4546 448.82 80.8186 448.643 81.0893 448.288C81.3693 447.924 81.5093 447.425 81.5093 446.79C81.5093 446.155 81.3693 445.661 81.0893 445.306C80.8186 444.942 80.4546 444.76 79.9973 444.76C79.5306 444.76 79.1619 444.942 78.8913 445.306C78.6206 445.661 78.4853 446.155 78.4853 446.79C78.4853 447.425 78.6206 447.924 78.8913 448.288C79.1619 448.643 79.5306 448.82 79.9973 448.82ZM86.0033 454.07C85.5739 454.07 85.1913 453.963 84.8553 453.748C84.5193 453.524 84.2579 453.211 84.0713 452.81C83.8846 452.409 83.7913 451.942 83.7913 451.41C83.7913 450.878 83.8846 450.411 84.0713 450.01C84.2579 449.609 84.5193 449.301 84.8553 449.086C85.1913 448.862 85.5739 448.75 86.0033 448.75C86.4513 448.75 86.8386 448.862 87.1653 449.086C87.5013 449.301 87.7579 449.609 87.9353 450.01C88.1219 450.411 88.2153 450.878 88.2153 451.41C88.2153 451.942 88.1219 452.409 87.9353 452.81C87.7579 453.211 87.5013 453.524 87.1653 453.748C86.8386 453.963 86.4513 454.07 86.0033 454.07ZM86.0033 453.44C86.4606 453.44 86.8246 453.263 87.0953 452.908C87.3753 452.544 87.5153 452.045 87.5153 451.41C87.5153 450.775 87.3753 450.281 87.0953 449.926C86.8246 449.562 86.4606 449.38 86.0033 449.38C85.5459 449.38 85.1773 449.562 84.8973 449.926C84.6266 450.281 84.4913 450.775 84.4913 451.41C84.4913 452.045 84.6266 452.544 84.8973 452.908C85.1773 453.263 85.5459 453.44 86.0033 453.44ZM97.6768 454.07C97.0421 454.07 96.4681 453.925 95.9548 453.636C95.4414 453.337 95.0308 452.913 94.7228 452.362C94.4241 451.802 94.2748 451.121 94.2748 450.318C94.2748 449.515 94.4241 448.839 94.7228 448.288C95.0214 447.728 95.4274 447.303 95.9408 447.014C96.4541 446.725 97.0328 446.58 97.6768 446.58C98.3768 446.58 99.0021 446.739 99.5528 447.056C100.113 447.364 100.551 447.803 100.869 448.372C101.186 448.932 101.345 449.581 101.345 450.318C101.345 451.065 101.186 451.718 100.869 452.278C100.551 452.838 100.113 453.277 99.5528 453.594C99.0021 453.911 98.3768 454.07 97.6768 454.07ZM93.8828 456.716V446.65H94.8348V448.862L94.7368 450.332L94.8768 451.816V456.716H93.8828ZM97.6068 453.188C98.1294 453.188 98.5961 453.071 99.0068 452.838C99.4174 452.595 99.7441 452.259 99.9868 451.83C100.229 451.391 100.351 450.887 100.351 450.318C100.351 449.749 100.229 449.249 99.9868 448.82C99.7441 448.391 99.4174 448.055 99.0068 447.812C98.5961 447.569 98.1294 447.448 97.6068 447.448C97.0841 447.448 96.6128 447.569 96.1928 447.812C95.7821 448.055 95.4554 448.391 95.2128 448.82C94.9794 449.249 94.8628 449.749 94.8628 450.318C94.8628 450.887 94.9794 451.391 95.2128 451.83C95.4554 452.259 95.7821 452.595 96.1928 452.838C96.6128 453.071 97.0841 453.188 97.6068 453.188ZM106.63 454.07C105.865 454.07 105.193 453.911 104.614 453.594C104.036 453.267 103.583 452.824 103.256 452.264C102.93 451.695 102.766 451.046 102.766 450.318C102.766 449.59 102.92 448.946 103.228 448.386C103.546 447.826 103.975 447.387 104.516 447.07C105.067 446.743 105.683 446.58 106.364 446.58C107.055 446.58 107.666 446.739 108.198 447.056C108.74 447.364 109.164 447.803 109.472 448.372C109.78 448.932 109.934 449.581 109.934 450.318C109.934 450.365 109.93 450.416 109.92 450.472C109.92 450.519 109.92 450.57 109.92 450.626H103.522V449.884H109.388L108.996 450.178C108.996 449.646 108.88 449.175 108.646 448.764C108.422 448.344 108.114 448.017 107.722 447.784C107.33 447.551 106.878 447.434 106.364 447.434C105.86 447.434 105.408 447.551 105.006 447.784C104.605 448.017 104.292 448.344 104.068 448.764C103.844 449.184 103.732 449.665 103.732 450.206V450.36C103.732 450.92 103.854 451.415 104.096 451.844C104.348 452.264 104.694 452.595 105.132 452.838C105.58 453.071 106.089 453.188 106.658 453.188C107.106 453.188 107.522 453.109 107.904 452.95C108.296 452.791 108.632 452.549 108.912 452.222L109.472 452.866C109.146 453.258 108.735 453.557 108.24 453.762C107.755 453.967 107.218 454.07 106.63 454.07ZM113.904 454.084C114.51 454.084 115.056 453.991 115.542 453.804C116.036 453.617 116.428 453.361 116.718 453.034C117.007 452.698 117.152 452.311 117.152 451.872C117.152 451.312 116.914 450.869 116.438 450.542C115.971 450.215 115.318 450.052 114.478 450.052L114.436 450.318C114.912 450.318 115.336 450.243 115.71 450.094C116.083 449.945 116.382 449.735 116.606 449.464C116.83 449.193 116.942 448.876 116.942 448.512C116.942 448.101 116.802 447.751 116.522 447.462C116.242 447.163 115.864 446.935 115.388 446.776C114.921 446.617 114.394 446.547 113.806 446.566C113.376 446.566 112.947 446.627 112.518 446.748C112.098 446.86 111.673 447.028 111.244 447.252L111.524 448.022C111.906 447.826 112.294 447.681 112.686 447.588C113.078 447.485 113.456 447.429 113.82 447.42C114.221 447.42 114.58 447.467 114.898 447.56C115.215 447.653 115.462 447.793 115.64 447.98C115.826 448.167 115.92 448.391 115.92 448.652C115.92 448.895 115.84 449.105 115.682 449.282C115.532 449.459 115.318 449.595 115.038 449.688C114.758 449.781 114.436 449.828 114.072 449.828H112.882V450.556H114.142C114.758 450.556 115.243 450.668 115.598 450.892C115.952 451.107 116.13 451.41 116.13 451.802C116.13 452.073 116.036 452.315 115.85 452.53C115.663 452.745 115.402 452.913 115.066 453.034C114.73 453.155 114.333 453.221 113.876 453.23C113.418 453.23 112.956 453.165 112.49 453.034C112.023 452.894 111.612 452.693 111.258 452.432L110.936 453.174C111.337 453.482 111.799 453.711 112.322 453.86C112.844 454.009 113.372 454.084 113.904 454.084ZM119.534 456.786C119.189 456.786 118.857 456.73 118.54 456.618C118.232 456.506 117.966 456.338 117.742 456.114L118.204 455.372C118.391 455.549 118.591 455.685 118.806 455.778C119.03 455.881 119.277 455.932 119.548 455.932C119.875 455.932 120.155 455.839 120.388 455.652C120.631 455.475 120.859 455.157 121.074 454.7L121.55 453.622L121.662 453.468L124.686 446.65H125.666L121.984 454.882C121.779 455.358 121.55 455.736 121.298 456.016C121.055 456.296 120.789 456.492 120.5 456.604C120.211 456.725 119.889 456.786 119.534 456.786ZM121.494 454.21L118.106 446.65H119.142L122.138 453.398L121.494 454.21ZM125.556 453.986L125.626 453.132C125.692 453.141 125.752 453.155 125.808 453.174C125.874 453.183 125.93 453.188 125.976 453.188C126.275 453.188 126.513 453.076 126.69 452.852C126.877 452.628 127.017 452.329 127.11 451.956C127.204 451.583 127.269 451.163 127.306 450.696C127.344 450.22 127.376 449.744 127.404 449.268L127.53 446.65H132.92V454H131.926V447.224L132.178 447.518H128.174L128.412 447.21L128.3 449.338C128.272 449.973 128.221 450.579 128.146 451.158C128.081 451.737 127.974 452.245 127.824 452.684C127.684 453.123 127.488 453.468 127.236 453.72C126.984 453.963 126.662 454.084 126.27 454.084C126.158 454.084 126.042 454.075 125.92 454.056C125.808 454.037 125.687 454.014 125.556 453.986ZM138.91 449.24C139.834 449.249 140.534 449.455 141.01 449.856C141.495 450.257 141.738 450.836 141.738 451.592C141.738 452.376 141.477 452.978 140.954 453.398C140.441 453.818 139.694 454.023 138.714 454.014L135.746 454V446.65H136.74V449.212L138.91 449.24ZM138.658 453.258C139.339 453.267 139.853 453.132 140.198 452.852C140.553 452.563 140.73 452.143 140.73 451.592C140.73 451.041 140.557 450.64 140.212 450.388C139.867 450.127 139.349 449.991 138.658 449.982L136.74 449.954V453.23L138.658 453.258ZM144.296 454V447.252L144.548 447.518H141.51V446.65H148.076V447.518H145.038L145.29 447.252V454H144.296ZM154.078 454V452.376L154.036 452.11V449.394C154.036 448.769 153.858 448.288 153.504 447.952C153.158 447.616 152.64 447.448 151.95 447.448C151.474 447.448 151.021 447.527 150.592 447.686C150.162 447.845 149.798 448.055 149.5 448.316L149.052 447.574C149.425 447.257 149.873 447.014 150.396 446.846C150.918 446.669 151.469 446.58 152.048 446.58C153 446.58 153.732 446.818 154.246 447.294C154.768 447.761 155.03 448.475 155.03 449.436V454H154.078ZM151.544 454.07C150.993 454.07 150.512 453.981 150.102 453.804C149.7 453.617 149.392 453.365 149.178 453.048C148.963 452.721 148.856 452.348 148.856 451.928C148.856 451.545 148.944 451.2 149.122 450.892C149.308 450.575 149.607 450.323 150.018 450.136C150.438 449.94 150.998 449.842 151.698 449.842H154.232V450.584H151.726C151.016 450.584 150.522 450.71 150.242 450.962C149.971 451.214 149.836 451.527 149.836 451.9C149.836 452.32 149.999 452.656 150.326 452.908C150.652 453.16 151.11 453.286 151.698 453.286C152.258 453.286 152.738 453.16 153.14 452.908C153.55 452.647 153.849 452.273 154.036 451.788L154.26 452.474C154.073 452.959 153.746 453.347 153.28 453.636C152.822 453.925 152.244 454.07 151.544 454.07ZM159.076 454V447.252L159.328 447.518H156.29V446.65H162.856V447.518H159.818L160.07 447.252V454H159.076ZM168.857 454V452.376L168.815 452.11V449.394C168.815 448.769 168.638 448.288 168.283 447.952C167.938 447.616 167.42 447.448 166.729 447.448C166.253 447.448 165.8 447.527 165.371 447.686C164.942 447.845 164.578 448.055 164.279 448.316L163.831 447.574C164.204 447.257 164.652 447.014 165.175 446.846C165.698 446.669 166.248 446.58 166.827 446.58C167.779 446.58 168.512 446.818 169.025 447.294C169.548 447.761 169.809 448.475 169.809 449.436V454H168.857ZM166.323 454.07C165.772 454.07 165.292 453.981 164.881 453.804C164.48 453.617 164.172 453.365 163.957 453.048C163.742 452.721 163.635 452.348 163.635 451.928C163.635 451.545 163.724 451.2 163.901 450.892C164.088 450.575 164.386 450.323 164.797 450.136C165.217 449.94 165.777 449.842 166.477 449.842H169.011V450.584H166.505C165.796 450.584 165.301 450.71 165.021 450.962C164.75 451.214 164.615 451.527 164.615 451.9C164.615 452.32 164.778 452.656 165.105 452.908C165.432 453.16 165.889 453.286 166.477 453.286C167.037 453.286 167.518 453.16 167.919 452.908C168.33 452.647 168.628 452.273 168.815 451.788L169.039 452.474C168.852 452.959 168.526 453.347 168.059 453.636C167.602 453.925 167.023 454.07 166.323 454.07ZM177.785 456.716C177.272 455.867 176.87 454.887 176.581 453.776C176.301 452.656 176.161 451.452 176.161 450.164C176.161 448.876 176.301 447.672 176.581 446.552C176.87 445.423 177.272 444.443 177.785 443.612H178.737C178.186 444.573 177.78 445.595 177.519 446.678C177.267 447.751 177.141 448.913 177.141 450.164C177.141 451.415 177.267 452.581 177.519 453.664C177.78 454.737 178.186 455.755 178.737 456.716H177.785ZM180.727 454V446.65H183.975C184.805 446.65 185.459 446.809 185.935 447.126C186.42 447.443 186.663 447.91 186.663 448.526C186.663 449.123 186.434 449.585 185.977 449.912C185.519 450.229 184.917 450.388 184.171 450.388L184.367 450.094C185.244 450.094 185.888 450.257 186.299 450.584C186.709 450.911 186.915 451.382 186.915 451.998C186.915 452.633 186.681 453.127 186.215 453.482C185.757 453.827 185.043 454 184.073 454H180.727ZM181.693 453.216H184.031C184.656 453.216 185.127 453.118 185.445 452.922C185.771 452.717 185.935 452.39 185.935 451.942C185.935 451.494 185.79 451.167 185.501 450.962C185.211 450.757 184.754 450.654 184.129 450.654H181.693V453.216ZM181.693 449.912H183.905C184.474 449.912 184.908 449.805 185.207 449.59C185.515 449.375 185.669 449.063 185.669 448.652C185.669 448.241 185.515 447.933 185.207 447.728C184.908 447.523 184.474 447.42 183.905 447.42H181.693V449.912ZM192.394 454.07C191.629 454.07 190.957 453.911 190.378 453.594C189.799 453.267 189.347 452.824 189.02 452.264C188.693 451.695 188.53 451.046 188.53 450.318C188.53 449.59 188.684 448.946 188.992 448.386C189.309 447.826 189.739 447.387 190.28 447.07C190.831 446.743 191.447 446.58 192.128 446.58C192.819 446.58 193.43 446.739 193.962 447.056C194.503 447.364 194.928 447.803 195.236 448.372C195.544 448.932 195.698 449.581 195.698 450.318C195.698 450.365 195.693 450.416 195.684 450.472C195.684 450.519 195.684 450.57 195.684 450.626H189.286V449.884H195.152L194.76 450.178C194.76 449.646 194.643 449.175 194.41 448.764C194.186 448.344 193.878 448.017 193.486 447.784C193.094 447.551 192.641 447.434 192.128 447.434C191.624 447.434 191.171 447.551 190.77 447.784C190.369 448.017 190.056 448.344 189.832 448.764C189.608 449.184 189.496 449.665 189.496 450.206V450.36C189.496 450.92 189.617 451.415 189.86 451.844C190.112 452.264 190.457 452.595 190.896 452.838C191.344 453.071 191.853 453.188 192.422 453.188C192.87 453.188 193.285 453.109 193.668 452.95C194.06 452.791 194.396 452.549 194.676 452.222L195.236 452.866C194.909 453.258 194.499 453.557 194.004 453.762C193.519 453.967 192.982 454.07 192.394 454.07ZM201.692 454.07C201.058 454.07 200.484 453.925 199.97 453.636C199.457 453.337 199.046 452.913 198.738 452.362C198.44 451.802 198.29 451.121 198.29 450.318C198.29 449.515 198.44 448.839 198.738 448.288C199.037 447.728 199.443 447.303 199.956 447.014C200.47 446.725 201.048 446.58 201.692 446.58C202.392 446.58 203.018 446.739 203.568 447.056C204.128 447.364 204.567 447.803 204.884 448.372C205.202 448.932 205.36 449.581 205.36 450.318C205.36 451.065 205.202 451.718 204.884 452.278C204.567 452.838 204.128 453.277 203.568 453.594C203.018 453.911 202.392 454.07 201.692 454.07ZM197.898 456.716V446.65H198.85V448.862L198.752 450.332L198.892 451.816V456.716H197.898ZM201.622 453.188C202.145 453.188 202.612 453.071 203.022 452.838C203.433 452.595 203.76 452.259 204.002 451.83C204.245 451.391 204.366 450.887 204.366 450.318C204.366 449.749 204.245 449.249 204.002 448.82C203.76 448.391 203.433 448.055 203.022 447.812C202.612 447.569 202.145 447.448 201.622 447.448C201.1 447.448 200.628 447.569 200.208 447.812C199.798 448.055 199.471 448.391 199.228 448.82C198.995 449.249 198.878 449.749 198.878 450.318C198.878 450.887 198.995 451.391 199.228 451.83C199.471 452.259 199.798 452.595 200.208 452.838C200.628 453.071 201.1 453.188 201.622 453.188ZM208.623 454V447.252L208.875 447.518H205.837V446.65H212.403V447.518H209.365L209.617 447.252V454H208.623ZM213.84 454V446.65H214.834V452.488L219.748 446.65H220.63V454H219.636V448.148L214.736 454H213.84ZM228.868 454L225.844 450.36L226.67 449.87L230.044 454H228.868ZM223.478 454V446.65H224.472V454H223.478ZM224.164 450.724V449.87H226.53V450.724H224.164ZM226.754 450.43L225.83 450.29L228.756 446.65H229.834L226.754 450.43ZM236.041 454V452.376L235.999 452.11V449.394C235.999 448.769 235.821 448.288 235.467 447.952C235.121 447.616 234.603 447.448 233.913 447.448C233.437 447.448 232.984 447.527 232.555 447.686C232.125 447.845 231.761 448.055 231.463 448.316L231.015 447.574C231.388 447.257 231.836 447.014 232.359 446.846C232.881 446.669 233.432 446.58 234.011 446.58C234.963 446.58 235.695 446.818 236.209 447.294C236.731 447.761 236.993 448.475 236.993 449.436V454H236.041ZM233.507 454.07C232.956 454.07 232.475 453.981 232.065 453.804C231.663 453.617 231.355 453.365 231.141 453.048C230.926 452.721 230.819 452.348 230.819 451.928C230.819 451.545 230.907 451.2 231.085 450.892C231.271 450.575 231.57 450.323 231.981 450.136C232.401 449.94 232.961 449.842 233.66 449.842H236.195V450.584H233.689C232.979 450.584 232.485 450.71 232.205 450.962C231.934 451.214 231.799 451.527 231.799 451.9C231.799 452.32 231.962 452.656 232.289 452.908C232.615 453.16 233.073 453.286 233.66 453.286C234.221 453.286 234.701 453.16 235.103 452.908C235.513 452.647 235.812 452.273 235.999 451.788L236.223 452.474C236.036 452.959 235.709 453.347 235.243 453.636C234.785 453.925 234.207 454.07 233.507 454.07ZM238.295 453.986L238.365 453.132C238.43 453.141 238.491 453.155 238.547 453.174C238.612 453.183 238.668 453.188 238.715 453.188C239.013 453.188 239.251 453.076 239.429 452.852C239.615 452.628 239.755 452.329 239.849 451.956C239.942 451.583 240.007 451.163 240.045 450.696C240.082 450.22 240.115 449.744 240.143 449.268L240.269 446.65H245.659V454H244.665V447.224L244.917 447.518H240.913L241.151 447.21L241.039 449.338C241.011 449.973 240.959 450.579 240.885 451.158C240.819 451.737 240.712 452.245 240.563 452.684C240.423 453.123 240.227 453.468 239.975 453.72C239.723 453.963 239.401 454.084 239.009 454.084C238.897 454.084 238.78 454.075 238.659 454.056C238.547 454.037 238.425 454.014 238.295 453.986ZM251.648 449.24C252.572 449.249 253.272 449.455 253.748 449.856C254.234 450.257 254.476 450.836 254.476 451.592C254.476 452.376 254.215 452.978 253.692 453.398C253.179 453.818 252.432 454.023 251.452 454.014L248.484 454V446.65H249.478V449.212L251.648 449.24ZM251.396 453.258C252.078 453.267 252.591 453.132 252.936 452.852C253.291 452.563 253.468 452.143 253.468 451.592C253.468 451.041 253.296 450.64 252.95 450.388C252.605 450.127 252.087 449.991 251.396 449.982L249.478 449.954V453.23L251.396 453.258ZM256.373 454V446.65H257.367V449.898H262.001V446.65H262.995V454H262.001V450.752H257.367V454H256.373ZM270.384 454V452.376L270.342 452.11V449.394C270.342 448.769 270.165 448.288 269.81 447.952C269.465 447.616 268.947 447.448 268.256 447.448C267.78 447.448 267.328 447.527 266.898 447.686C266.469 447.845 266.105 448.055 265.806 448.316L265.358 447.574C265.732 447.257 266.18 447.014 266.702 446.846C267.225 446.669 267.776 446.58 268.354 446.58C269.306 446.58 270.039 446.818 270.552 447.294C271.075 447.761 271.336 448.475 271.336 449.436V454H270.384ZM267.85 454.07C267.3 454.07 266.819 453.981 266.408 453.804C266.007 453.617 265.699 453.365 265.484 453.048C265.27 452.721 265.162 452.348 265.162 451.928C265.162 451.545 265.251 451.2 265.428 450.892C265.615 450.575 265.914 450.323 266.324 450.136C266.744 449.94 267.304 449.842 268.004 449.842H270.538V450.584H268.032C267.323 450.584 266.828 450.71 266.548 450.962C266.278 451.214 266.142 451.527 266.142 451.9C266.142 452.32 266.306 452.656 266.632 452.908C266.959 453.16 267.416 453.286 268.004 453.286C268.564 453.286 269.045 453.16 269.446 452.908C269.857 452.647 270.156 452.273 270.342 451.788L270.566 452.474C270.38 452.959 270.053 453.347 269.586 453.636C269.129 453.925 268.55 454.07 267.85 454.07ZM278.728 454V451.354L278.91 451.564H276.418C275.476 451.564 274.738 451.359 274.206 450.948C273.674 450.537 273.408 449.94 273.408 449.156C273.408 448.316 273.693 447.691 274.262 447.28C274.832 446.86 275.592 446.65 276.544 446.65H279.638V454H278.728ZM273.352 454L275.368 451.172H276.404L274.43 454H273.352ZM278.728 451.06V447.224L278.91 447.518H276.572C275.891 447.518 275.359 447.649 274.976 447.91C274.603 448.171 274.416 448.596 274.416 449.184C274.416 450.276 275.112 450.822 276.502 450.822H278.91L278.728 451.06ZM289.161 454.07C288.451 454.07 287.812 453.911 287.243 453.594C286.683 453.267 286.239 452.824 285.913 452.264C285.586 451.695 285.423 451.046 285.423 450.318C285.423 449.581 285.586 448.932 285.913 448.372C286.239 447.812 286.683 447.373 287.243 447.056C287.803 446.739 288.442 446.58 289.161 446.58C289.889 446.58 290.533 446.739 291.093 447.056C291.662 447.373 292.105 447.812 292.423 448.372C292.749 448.932 292.913 449.581 292.913 450.318C292.913 451.046 292.749 451.695 292.423 452.264C292.105 452.824 291.662 453.267 291.093 453.594C290.523 453.911 289.879 454.07 289.161 454.07ZM289.161 453.188C289.693 453.188 290.164 453.071 290.575 452.838C290.985 452.595 291.307 452.259 291.541 451.83C291.783 451.391 291.905 450.887 291.905 450.318C291.905 449.739 291.783 449.235 291.541 448.806C291.307 448.377 290.985 448.045 290.575 447.812C290.164 447.569 289.697 447.448 289.175 447.448C288.652 447.448 288.185 447.569 287.775 447.812C287.364 448.045 287.037 448.377 286.795 448.806C286.552 449.235 286.431 449.739 286.431 450.318C286.431 450.887 286.552 451.391 286.795 451.83C287.037 452.259 287.364 452.595 287.775 452.838C288.185 453.071 288.647 453.188 289.161 453.188ZM298.117 454.07C297.389 454.07 296.736 453.911 296.157 453.594C295.588 453.267 295.14 452.824 294.813 452.264C294.486 451.695 294.323 451.046 294.323 450.318C294.323 449.581 294.486 448.932 294.813 448.372C295.14 447.812 295.588 447.373 296.157 447.056C296.736 446.739 297.389 446.58 298.117 446.58C298.742 446.58 299.307 446.701 299.811 446.944C300.315 447.187 300.712 447.551 301.001 448.036L300.259 448.54C300.007 448.167 299.694 447.891 299.321 447.714C298.948 447.537 298.542 447.448 298.103 447.448C297.58 447.448 297.109 447.569 296.689 447.812C296.269 448.045 295.938 448.377 295.695 448.806C295.452 449.235 295.331 449.739 295.331 450.318C295.331 450.897 295.452 451.401 295.695 451.83C295.938 452.259 296.269 452.595 296.689 452.838C297.109 453.071 297.58 453.188 298.103 453.188C298.542 453.188 298.948 453.099 299.321 452.922C299.694 452.745 300.007 452.474 300.259 452.11L301.001 452.614C300.712 453.09 300.315 453.454 299.811 453.706C299.307 453.949 298.742 454.07 298.117 454.07ZM306.09 449.24C307.014 449.249 307.714 449.455 308.19 449.856C308.675 450.257 308.918 450.836 308.918 451.592C308.918 452.376 308.656 452.978 308.134 453.398C307.62 453.818 306.874 454.023 305.894 454.014L302.926 454V446.65H303.92V449.212L306.09 449.24ZM305.838 453.258C306.519 453.267 307.032 453.132 307.378 452.852C307.732 452.563 307.91 452.143 307.91 451.592C307.91 451.041 307.737 450.64 307.392 450.388C307.046 450.127 306.528 449.991 305.838 449.982L303.92 449.954V453.23L305.838 453.258ZM310.912 456.716H309.96C310.52 455.755 310.926 454.737 311.178 453.664C311.44 452.581 311.57 451.415 311.57 450.164C311.57 448.913 311.44 447.751 311.178 446.678C310.926 445.595 310.52 444.573 309.96 443.612H310.912C311.444 444.443 311.85 445.423 312.13 446.552C312.41 447.672 312.55 448.876 312.55 450.164C312.55 451.452 312.41 452.656 312.13 453.776C311.85 454.887 311.444 455.867 310.912 456.716Z" fill="black"/>
<path d="M505.784 408V397.28L506.296 397.824H503.144V396.8H506.936V408H505.784ZM514.077 408.096C513.213 408.096 512.445 407.872 511.773 407.424C511.101 406.965 510.573 406.315 510.189 405.472C509.805 404.619 509.613 403.595 509.613 402.4C509.613 401.205 509.805 400.187 510.189 399.344C510.573 398.491 511.101 397.84 511.773 397.392C512.445 396.933 513.213 396.704 514.077 396.704C514.941 396.704 515.709 396.933 516.381 397.392C517.053 397.84 517.581 398.491 517.965 399.344C518.36 400.187 518.557 401.205 518.557 402.4C518.557 403.595 518.36 404.619 517.965 405.472C517.581 406.315 517.053 406.965 516.381 407.424C515.709 407.872 514.941 408.096 514.077 408.096ZM514.077 407.04C514.739 407.04 515.315 406.864 515.805 406.512C516.296 406.149 516.68 405.627 516.957 404.944C517.235 404.251 517.373 403.403 517.373 402.4C517.373 401.397 517.235 400.555 516.957 399.872C516.68 399.179 516.296 398.656 515.805 398.304C515.315 397.941 514.739 397.76 514.077 397.76C513.437 397.76 512.867 397.941 512.365 398.304C511.864 398.656 511.475 399.179 511.197 399.872C510.92 400.555 510.781 401.397 510.781 402.4C510.781 403.403 510.92 404.251 511.197 404.944C511.475 405.627 511.864 406.149 512.365 406.512C512.867 406.864 513.437 407.04 514.077 407.04ZM524.671 408.096C523.807 408.096 523.039 407.872 522.367 407.424C521.695 406.965 521.167 406.315 520.783 405.472C520.399 404.619 520.207 403.595 520.207 402.4C520.207 401.205 520.399 400.187 520.783 399.344C521.167 398.491 521.695 397.84 522.367 397.392C523.039 396.933 523.807 396.704 524.671 396.704C525.535 396.704 526.303 396.933 526.975 397.392C527.647 397.84 528.175 398.491 528.559 399.344C528.954 400.187 529.151 401.205 529.151 402.4C529.151 403.595 528.954 404.619 528.559 405.472C528.175 406.315 527.647 406.965 526.975 407.424C526.303 407.872 525.535 408.096 524.671 408.096ZM524.671 407.04C525.332 407.04 525.908 406.864 526.399 406.512C526.89 406.149 527.274 405.627 527.551 404.944C527.828 404.251 527.967 403.403 527.967 402.4C527.967 401.397 527.828 400.555 527.551 399.872C527.274 399.179 526.89 398.656 526.399 398.304C525.908 397.941 525.332 397.76 524.671 397.76C524.031 397.76 523.46 397.941 522.959 398.304C522.458 398.656 522.068 399.179 521.791 399.872C521.514 400.555 521.375 401.397 521.375 402.4C521.375 403.403 521.514 404.251 521.791 404.944C522.068 405.627 522.458 406.149 522.959 406.512C523.46 406.864 524.031 407.04 524.671 407.04ZM532.305 408L539.953 396.8H540.897L533.249 408H532.305ZM533.169 402.8C532.667 402.8 532.225 402.677 531.841 402.432C531.457 402.176 531.158 401.819 530.945 401.36C530.742 400.901 530.641 400.368 530.641 399.76C530.641 399.152 530.742 398.619 530.945 398.16C531.158 397.701 531.457 397.349 531.841 397.104C532.225 396.848 532.667 396.72 533.169 396.72C533.67 396.72 534.107 396.848 534.481 397.104C534.865 397.349 535.163 397.701 535.377 398.16C535.59 398.619 535.697 399.152 535.697 399.76C535.697 400.368 535.59 400.901 535.377 401.36C535.163 401.819 534.865 402.176 534.481 402.432C534.107 402.677 533.67 402.8 533.169 402.8ZM533.169 402.08C533.691 402.08 534.107 401.877 534.417 401.472C534.737 401.056 534.897 400.485 534.897 399.76C534.897 399.035 534.737 398.469 534.417 398.064C534.107 397.648 533.691 397.44 533.169 397.44C532.635 397.44 532.214 397.648 531.905 398.064C531.595 398.469 531.441 399.035 531.441 399.76C531.441 400.485 531.595 401.056 531.905 401.472C532.214 401.877 532.635 402.08 533.169 402.08ZM540.033 408.08C539.542 408.08 539.105 407.957 538.721 407.712C538.337 407.456 538.038 407.099 537.825 406.64C537.611 406.181 537.505 405.648 537.505 405.04C537.505 404.432 537.611 403.899 537.825 403.44C538.038 402.981 538.337 402.629 538.721 402.384C539.105 402.128 539.542 402 540.033 402C540.545 402 540.987 402.128 541.361 402.384C541.745 402.629 542.038 402.981 542.241 403.44C542.454 403.899 542.561 404.432 542.561 405.04C542.561 405.648 542.454 406.181 542.241 406.64C542.038 407.099 541.745 407.456 541.361 407.712C540.987 407.957 540.545 408.08 540.033 408.08ZM540.033 407.36C540.555 407.36 540.971 407.157 541.281 406.752C541.601 406.336 541.761 405.765 541.761 405.04C541.761 404.315 541.601 403.749 541.281 403.344C540.971 402.928 540.555 402.72 540.033 402.72C539.51 402.72 539.089 402.928 538.769 403.344C538.459 403.749 538.305 404.315 538.305 405.04C538.305 405.765 538.459 406.336 538.769 406.752C539.089 407.157 539.51 407.36 540.033 407.36Z" fill="black"/>
<path d="M330.424 408.096C329.432 408.096 328.595 407.877 327.912 407.44C327.229 406.992 326.712 406.352 326.36 405.52C326.008 404.677 325.832 403.669 325.832 402.496C325.832 401.227 326.045 400.165 326.472 399.312C326.909 398.448 327.512 397.797 328.28 397.36C329.048 396.923 329.939 396.704 330.952 396.704C331.453 396.704 331.933 396.752 332.392 396.848C332.851 396.944 333.256 397.099 333.608 397.312L333.144 398.24C332.856 398.048 332.525 397.915 332.152 397.84C331.779 397.755 331.384 397.712 330.968 397.712C329.763 397.712 328.797 398.096 328.072 398.864C327.357 399.632 327 400.779 327 402.304C327 402.539 327.011 402.832 327.032 403.184C327.064 403.525 327.128 403.867 327.224 404.208L326.824 403.904C326.941 403.349 327.171 402.88 327.512 402.496C327.853 402.101 328.28 401.803 328.792 401.6C329.304 401.397 329.864 401.296 330.472 401.296C331.219 401.296 331.875 401.435 332.44 401.712C333.005 401.989 333.448 402.379 333.768 402.88C334.088 403.381 334.248 403.973 334.248 404.656C334.248 405.349 334.083 405.957 333.752 406.48C333.421 406.992 332.963 407.392 332.376 407.68C331.8 407.957 331.149 408.096 330.424 408.096ZM330.376 407.12C330.909 407.12 331.379 407.024 331.784 406.832C332.2 406.629 332.525 406.347 332.76 405.984C332.995 405.611 333.112 405.179 333.112 404.688C333.112 403.952 332.856 403.365 332.344 402.928C331.843 402.491 331.16 402.272 330.296 402.272C329.72 402.272 329.219 402.379 328.792 402.592C328.365 402.805 328.029 403.099 327.784 403.472C327.539 403.835 327.416 404.251 327.416 404.72C327.416 405.125 327.528 405.515 327.752 405.888C327.976 406.251 328.307 406.549 328.744 406.784C329.192 407.008 329.736 407.12 330.376 407.12ZM340.046 408.096C339.182 408.096 338.414 407.872 337.742 407.424C337.07 406.965 336.542 406.315 336.158 405.472C335.774 404.619 335.582 403.595 335.582 402.4C335.582 401.205 335.774 400.187 336.158 399.344C336.542 398.491 337.07 397.84 337.742 397.392C338.414 396.933 339.182 396.704 340.046 396.704C340.91 396.704 341.678 396.933 342.35 397.392C343.022 397.84 343.55 398.491 343.934 399.344C344.329 400.187 344.526 401.205 344.526 402.4C344.526 403.595 344.329 404.619 343.934 405.472C343.55 406.315 343.022 406.965 342.35 407.424C341.678 407.872 340.91 408.096 340.046 408.096ZM340.046 407.04C340.707 407.04 341.283 406.864 341.774 406.512C342.265 406.149 342.649 405.627 342.926 404.944C343.203 404.251 343.342 403.403 343.342 402.4C343.342 401.397 343.203 400.555 342.926 399.872C342.649 399.179 342.265 398.656 341.774 398.304C341.283 397.941 340.707 397.76 340.046 397.76C339.406 397.76 338.835 397.941 338.334 398.304C337.833 398.656 337.443 399.179 337.166 399.872C336.889 400.555 336.75 401.397 336.75 402.4C336.75 403.403 336.889 404.251 337.166 404.944C337.443 405.627 337.833 406.149 338.334 406.512C338.835 406.864 339.406 407.04 340.046 407.04Z" fill="black"/>
<path d="M423.088 408.096C422.192 408.096 421.419 407.968 420.768 407.712C420.128 407.456 419.632 407.088 419.28 406.608C418.939 406.117 418.768 405.541 418.768 404.88C418.768 404.24 418.933 403.696 419.264 403.248C419.605 402.789 420.096 402.437 420.736 402.192C421.387 401.947 422.171 401.824 423.088 401.824C423.995 401.824 424.773 401.947 425.424 402.192C426.075 402.437 426.571 402.789 426.912 403.248C427.264 403.696 427.44 404.24 427.44 404.88C427.44 405.541 427.264 406.117 426.912 406.608C426.56 407.088 426.059 407.456 425.408 407.712C424.757 407.968 423.984 408.096 423.088 408.096ZM423.088 407.12C424.08 407.12 424.853 406.917 425.408 406.512C425.973 406.107 426.256 405.557 426.256 404.864C426.256 404.171 425.973 403.627 425.408 403.232C424.853 402.827 424.08 402.624 423.088 402.624C422.096 402.624 421.323 402.827 420.768 403.232C420.213 403.627 419.936 404.171 419.936 404.864C419.936 405.557 420.213 406.107 420.768 406.512C421.323 406.917 422.096 407.12 423.088 407.12ZM423.088 402.48C422.256 402.48 421.547 402.368 420.96 402.144C420.384 401.92 419.941 401.6 419.632 401.184C419.323 400.757 419.168 400.251 419.168 399.664C419.168 399.045 419.328 398.517 419.648 398.08C419.979 397.632 420.437 397.291 421.024 397.056C421.611 396.821 422.299 396.704 423.088 396.704C423.877 396.704 424.565 396.821 425.152 397.056C425.749 397.291 426.213 397.632 426.544 398.08C426.875 398.517 427.04 399.045 427.04 399.664C427.04 400.251 426.885 400.757 426.576 401.184C426.267 401.6 425.813 401.92 425.216 402.144C424.629 402.368 423.92 402.48 423.088 402.48ZM423.088 401.712C423.963 401.712 424.645 401.531 425.136 401.168C425.627 400.805 425.872 400.32 425.872 399.712C425.872 399.072 425.616 398.576 425.104 398.224C424.603 397.861 423.931 397.68 423.088 397.68C422.245 397.68 421.573 397.861 421.072 398.224C420.571 398.576 420.32 399.067 420.32 399.696C420.32 400.315 420.56 400.805 421.04 401.168C421.531 401.531 422.213 401.712 423.088 401.712ZM433.499 408.096C432.635 408.096 431.867 407.872 431.195 407.424C430.523 406.965 429.995 406.315 429.611 405.472C429.227 404.619 429.035 403.595 429.035 402.4C429.035 401.205 429.227 400.187 429.611 399.344C429.995 398.491 430.523 397.84 431.195 397.392C431.867 396.933 432.635 396.704 433.499 396.704C434.363 396.704 435.131 396.933 435.803 397.392C436.475 397.84 437.003 398.491 437.387 399.344C437.782 400.187 437.979 401.205 437.979 402.4C437.979 403.595 437.782 404.619 437.387 405.472C437.003 406.315 436.475 406.965 435.803 407.424C435.131 407.872 434.363 408.096 433.499 408.096ZM433.499 407.04C434.16 407.04 434.736 406.864 435.227 406.512C435.718 406.149 436.102 405.627 436.379 404.944C436.656 404.251 436.795 403.403 436.795 402.4C436.795 401.397 436.656 400.555 436.379 399.872C436.102 399.179 435.718 398.656 435.227 398.304C434.736 397.941 434.16 397.76 433.499 397.76C432.859 397.76 432.288 397.941 431.787 398.304C431.286 398.656 430.896 399.179 430.619 399.872C430.342 400.555 430.203 401.397 430.203 402.4C430.203 403.403 430.342 404.251 430.619 404.944C430.896 405.627 431.286 406.149 431.787 406.512C432.288 406.864 432.859 407.04 433.499 407.04Z" fill="black"/>
<path d="M234.64 405.056V404.224L240.576 396.8H241.856L235.968 404.224L235.344 404.032H244.352V405.056H234.64ZM240.96 408V405.056L240.992 404.032V401.44H242.112V408H240.96ZM249.874 408.096C249.01 408.096 248.242 407.872 247.57 407.424C246.898 406.965 246.37 406.315 245.986 405.472C245.602 404.619 245.41 403.595 245.41 402.4C245.41 401.205 245.602 400.187 245.986 399.344C246.37 398.491 246.898 397.84 247.57 397.392C248.242 396.933 249.01 396.704 249.874 396.704C250.738 396.704 251.506 396.933 252.178 397.392C252.85 397.84 253.378 398.491 253.762 399.344C254.157 400.187 254.354 401.205 254.354 402.4C254.354 403.595 254.157 404.619 253.762 405.472C253.378 406.315 252.85 406.965 252.178 407.424C251.506 407.872 250.738 408.096 249.874 408.096ZM249.874 407.04C250.535 407.04 251.111 406.864 251.602 406.512C252.093 406.149 252.477 405.627 252.754 404.944C253.031 404.251 253.17 403.403 253.17 402.4C253.17 401.397 253.031 400.555 252.754 399.872C252.477 399.179 252.093 398.656 251.602 398.304C251.111 397.941 250.535 397.76 249.874 397.76C249.234 397.76 248.663 397.941 248.162 398.304C247.661 398.656 247.271 399.179 246.994 399.872C246.717 400.555 246.578 401.397 246.578 402.4C246.578 403.403 246.717 404.251 246.994 404.944C247.271 405.627 247.661 406.149 248.162 406.512C248.663 406.864 249.234 407.04 249.874 407.04Z" fill="black"/>
<path d="M142.624 408V407.184L147.28 402.624C147.707 402.208 148.027 401.845 148.24 401.536C148.453 401.216 148.597 400.917 148.672 400.64C148.747 400.363 148.784 400.101 148.784 399.856C148.784 399.205 148.56 398.693 148.112 398.32C147.675 397.947 147.024 397.76 146.16 397.76C145.499 397.76 144.912 397.861 144.4 398.064C143.899 398.267 143.467 398.581 143.104 399.008L142.288 398.304C142.725 397.792 143.285 397.397 143.968 397.12C144.651 396.843 145.413 396.704 146.256 396.704C147.013 396.704 147.669 396.827 148.224 397.072C148.779 397.307 149.205 397.653 149.504 398.112C149.813 398.571 149.968 399.109 149.968 399.728C149.968 400.091 149.915 400.448 149.808 400.8C149.712 401.152 149.531 401.525 149.264 401.92C149.008 402.304 148.629 402.741 148.128 403.232L143.856 407.424L143.536 406.976H150.48V408H142.624ZM156.359 408.096C155.495 408.096 154.727 407.872 154.055 407.424C153.383 406.965 152.855 406.315 152.471 405.472C152.087 404.619 151.895 403.595 151.895 402.4C151.895 401.205 152.087 400.187 152.471 399.344C152.855 398.491 153.383 397.84 154.055 397.392C154.727 396.933 155.495 396.704 156.359 396.704C157.223 396.704 157.991 396.933 158.663 397.392C159.335 397.84 159.863 398.491 160.247 399.344C160.641 400.187 160.839 401.205 160.839 402.4C160.839 403.595 160.641 404.619 160.247 405.472C159.863 406.315 159.335 406.965 158.663 407.424C157.991 407.872 157.223 408.096 156.359 408.096ZM156.359 407.04C157.02 407.04 157.596 406.864 158.087 406.512C158.577 406.149 158.961 405.627 159.239 404.944C159.516 404.251 159.655 403.403 159.655 402.4C159.655 401.397 159.516 400.555 159.239 399.872C158.961 399.179 158.577 398.656 158.087 398.304C157.596 397.941 157.02 397.76 156.359 397.76C155.719 397.76 155.148 397.941 154.647 398.304C154.145 398.656 153.756 399.179 153.479 399.872C153.201 400.555 153.062 401.397 153.062 402.4C153.062 403.403 153.201 404.251 153.479 404.944C153.756 405.627 154.145 406.149 154.647 406.512C155.148 406.864 155.719 407.04 156.359 407.04Z" fill="black"/>
<path d="M58.001 382C99.5 68.4998 148.001 12.8 522.001 20" stroke="black" stroke-width="2"/>
<path d="M151.505 391.003L151.505 19.9999" stroke="black"/>
<path d="M58.5 391.5L58.5 0" stroke="black"/>
<path d="M58.296 408.096C57.432 408.096 56.664 407.872 55.992 407.424C55.32 406.965 54.792 406.315 54.408 405.472C54.024 404.619 53.832 403.595 53.832 402.4C53.832 401.205 54.024 400.187 54.408 399.344C54.792 398.491 55.32 397.84 55.992 397.392C56.664 396.933 57.432 396.704 58.296 396.704C59.16 396.704 59.928 396.933 60.6 397.392C61.272 397.84 61.8 398.491 62.184 399.344C62.5787 400.187 62.776 401.205 62.776 402.4C62.776 403.595 62.5787 404.619 62.184 405.472C61.8 406.315 61.272 406.965 60.6 407.424C59.928 407.872 59.16 408.096 58.296 408.096ZM58.296 407.04C58.9573 407.04 59.5333 406.864 60.024 406.512C60.5147 406.149 60.8987 405.627 61.176 404.944C61.4533 404.251 61.592 403.403 61.592 402.4C61.592 401.397 61.4533 400.555 61.176 399.872C60.8987 399.179 60.5147 398.656 60.024 398.304C59.5333 397.941 58.9573 397.76 58.296 397.76C57.656 397.76 57.0853 397.941 56.584 398.304C56.0827 398.656 55.6933 399.179 55.416 399.872C55.1387 400.555 55 401.397 55 402.4C55 403.403 55.1387 404.251 55.416 404.944C55.6933 405.627 56.0827 406.149 56.584 406.512C57.0853 406.864 57.656 407.04 58.296 407.04Z" fill="black"/>
<path d="M32.296 381.096C31.432 381.096 30.664 380.872 29.992 380.424C29.32 379.965 28.792 379.315 28.408 378.472C28.024 377.619 27.832 376.595 27.832 375.4C27.832 374.205 28.024 373.187 28.408 372.344C28.792 371.491 29.32 370.84 29.992 370.392C30.664 369.933 31.432 369.704 32.296 369.704C33.16 369.704 33.928 369.933 34.6 370.392C35.272 370.84 35.8 371.491 36.184 372.344C36.5787 373.187 36.776 374.205 36.776 375.4C36.776 376.595 36.5787 377.619 36.184 378.472C35.8 379.315 35.272 379.965 34.6 380.424C33.928 380.872 33.16 381.096 32.296 381.096ZM32.296 380.04C32.9573 380.04 33.5333 379.864 34.024 379.512C34.5147 379.149 34.8987 378.627 35.176 377.944C35.4533 377.251 35.592 376.403 35.592 375.4C35.592 374.397 35.4533 373.555 35.176 372.872C34.8987 372.179 34.5147 371.656 34.024 371.304C33.5333 370.941 32.9573 370.76 32.296 370.76C31.656 370.76 31.0853 370.941 30.584 371.304C30.0827 371.656 29.6933 372.179 29.416 372.872C29.1387 373.555 29 374.397 29 375.4C29 376.403 29.1387 377.251 29.416 377.944C29.6933 378.627 30.0827 379.149 30.584 379.512C31.0853 379.864 31.656 380.04 32.296 380.04Z" fill="black"/>
<path d="M242.5 391.005L242.5 19.4999" stroke="black" stroke-opacity="0.6"/>
<line x1="335.5" y1="396.005" x2="335.5" y2="20" stroke="black" stroke-opacity="0.6"/>
<path d="M427.5 391.005L429 19.4999" stroke="black" stroke-opacity="0.6"/>
<line x1="523.5" y1="391.005" x2="523.5" y2="15" stroke="black" stroke-opacity="0.6"/>
<path d="M524 381L44 381M524 164.2L43.5 164.2M523.994 307.398L46.945 307.398M524 235.799L43.5 235.799M523.999 19.9999L46.9498 19.9999M524 90.5977L46.9508 90.5977" stroke="black" stroke-opacity="0.6"/>
</svg>
