<svg width="52" height="43" viewBox="0 0 52 43" fill="none" xmlns="http://www.w3.org/2000/svg">
<path d="M0.634592 21.0713L13.1802 24.8672L20.6382 20.8413C25.7837 17.6589 36.8839 10.7764 40.1215 8.70596C43.3591 6.63548 42.2028 8.26503 41.22 9.33861L20.6382 28.433C20.3299 30.5227 19.7363 35.4381 19.8288 38.3828C19.9213 41.3275 21.6789 40.0315 22.5461 39.0155L27.9228 33.3792C30.3124 35.0087 35.9589 38.981 39.4277 41.8336C42.8966 44.6863 43.8794 41.6419 43.9372 39.7631L51.3374 5.65775C53.7887 -1.33587 48.8514 -0.400321 46.0763 0.941656C32.3744 6.022 4.33468 16.4472 1.79087 17.5055C-0.752943 18.5637 -0.0399042 20.3236 0.634592 21.0713Z" fill="black"/>
</svg>
